<svg xmlns="http://www.w3.org/2000/svg" xmlns:xlink="http://www.w3.org/1999/xlink" width="1280" zoomAndPan="magnify" viewBox="0 0 960 599.999999" height="800" preserveAspectRatio="xMidYMid meet" version="1.0"><defs><clipPath id="717937e4ba"><path d="M 273.078125 71.25 L 292.578125 71.25 L 292.578125 90.75 L 273.078125 90.75 Z M 273.078125 71.25 " clip-rule="nonzero"/></clipPath><clipPath id="a19714404f"><path d="M 148.519531 229 L 359 229 L 359 479 L 148.519531 479 Z M 148.519531 229 " clip-rule="nonzero"/></clipPath><clipPath id="f66eeab142"><path d="M 172 234 L 383 234 L 383 483.367188 L 172 483.367188 Z M 172 234 " clip-rule="nonzero"/></clipPath><clipPath id="48c310cf8b"><path d="M 601 167 L 810.769531 167 L 810.769531 416 L 601 416 Z M 601 167 " clip-rule="nonzero"/></clipPath><clipPath id="b848129e98"><path d="M 221 180 L 724.554688 180 L 724.554688 378 L 221 378 Z M 221 180 " clip-rule="nonzero"/></clipPath></defs><g clip-path="url(#717937e4ba)"><path fill="#ffffff" d="M 285.609375 85.507812 L 290.386719 90.285156 C 290.859375 90.757812 291.628906 90.757812 292.101562 90.285156 C 292.574219 89.808594 292.574219 89.042969 292.101562 88.570312 L 287.328125 83.796875 C 288.289062 82.492188 288.855469 80.878906 288.855469 79.136719 C 288.855469 74.785156 285.320312 71.25 280.96875 71.25 C 276.617188 71.25 273.085938 74.785156 273.085938 79.136719 C 273.085938 83.488281 276.617188 87.019531 280.96875 87.019531 C 282.703125 87.019531 284.308594 86.460938 285.609375 85.507812 Z M 280.96875 73.671875 C 283.984375 73.671875 286.429688 76.121094 286.429688 79.136719 C 286.429688 82.148438 283.984375 84.597656 280.96875 84.597656 C 277.957031 84.597656 275.507812 82.148438 275.507812 79.136719 C 275.507812 76.121094 277.957031 73.671875 280.96875 73.671875 Z M 280.96875 73.671875 " fill-opacity="1" fill-rule="evenodd"/></g><g clip-path="url(#a19714404f)"><path fill="#ffd1d1" d="M 148.519531 421.386719 L 155.488281 359.878906 L 270.566406 229.804688 L 350.023438 238.804688 L 334.285156 377.773438 L 358.222656 380.488281 L 350.988281 444.339844 L 327.050781 441.59375 L 322.933594 478.179688 L 248.4375 469.746094 L 252.578125 433.175781 Z M 272.007812 315.175781 L 229.886719 365.953125 L 265.796875 370.027344 Z M 272.007812 315.175781 " fill-opacity="1" fill-rule="nonzero"/></g><g clip-path="url(#f66eeab142)"><path fill="#5271ff" d="M 172.945312 426.269531 L 179.890625 364.761719 L 294.972656 234.6875 L 374.433594 243.6875 L 358.6875 382.660156 L 382.625 385.367188 L 375.398438 449.21875 L 351.460938 446.507812 L 347.316406 483.078125 L 272.84375 474.628906 L 276.988281 438.058594 Z M 296.414062 320.042969 L 254.296875 370.832031 L 290.199219 374.898438 Z M 296.414062 320.042969 " fill-opacity="1" fill-rule="nonzero"/></g><g clip-path="url(#48c310cf8b)"><path fill="#ffd1d1" d="M 608.035156 390.109375 L 601.414062 328.5625 L 685.339844 176.515625 L 764.851562 167.941406 L 779.808594 307.03125 L 803.761719 304.460938 L 810.617188 368.3125 L 786.664062 370.882812 L 790.601562 407.480469 L 716.082031 415.496094 L 712.144531 378.902344 Z M 705.375 259.5 L 675.351562 318.253906 L 711.277344 314.398438 Z M 705.375 259.5 " fill-opacity="1" fill-rule="nonzero"/></g><path fill="#5271ff" d="M 599.023438 403.625 L 592.402344 342.082031 L 676.328125 190.042969 L 755.835938 181.472656 L 770.796875 320.527344 L 794.75 317.957031 L 801.605469 381.808594 L 777.648438 384.378906 L 781.589844 420.972656 L 707.070312 428.988281 L 703.132812 392.390625 Z M 696.363281 273.015625 L 666.339844 331.773438 L 702.265625 327.914062 Z M 696.363281 273.015625 " fill-opacity="1" fill-rule="nonzero"/><path fill="#ffd1d1" d="M 426.507812 84.570312 C 460.132812 43.914062 553.1875 54.363281 576.929688 101.765625 C 605.246094 145.746094 593.730469 246.179688 556.441406 282.605469 C 522.652344 323.535156 429.59375 312.910156 406.023438 265.5625 C 378 221.84375 389.355469 120.890625 426.507812 84.570312 Z M 517.71875 145.902344 C 515.183594 136.523438 508.488281 131.21875 497.632812 129.992188 C 486.546875 128.734375 478.726562 132.394531 474.167969 140.972656 C 465.25 155.96875 459.773438 204.96875 465.050781 221.425781 C 468.480469 239.910156 501.046875 243.847656 508.601562 226.359375 C 517.425781 211.515625 523.058594 162.527344 517.71875 145.902344 Z M 517.71875 145.902344 " fill-opacity="1" fill-rule="nonzero"/><path fill="#5271ff" d="M 444.53125 84.570312 C 478.15625 43.914062 571.210938 54.363281 594.953125 101.765625 C 623.269531 145.746094 611.753906 246.179688 574.464844 282.605469 C 540.675781 323.535156 447.617188 312.910156 424.027344 265.5625 C 396.023438 221.84375 407.375 120.890625 444.53125 84.570312 Z M 535.742188 145.902344 C 533.210938 136.523438 526.515625 131.21875 515.65625 129.992188 C 504.570312 128.734375 496.746094 132.394531 492.191406 140.972656 C 483.273438 155.96875 477.796875 204.96875 483.074219 221.425781 C 486.503906 239.910156 519.074219 243.847656 526.628906 226.355469 C 535.449219 211.515625 541.054688 162.527344 535.742188 145.902344 Z M 535.742188 145.902344 " fill-opacity="1" fill-rule="nonzero"/><path fill="#ffffff" d="M 433.828125 264.632812 C 433.691406 262.660156 433.097656 244.246094 432.046875 209.394531 C 431.78125 200.671875 437.824219 193.019531 446.375 191.253906 C 446.945312 191.136719 447.230469 191.074219 447.230469 191.074219 C 457.550781 190.355469 466.730469 197.574219 468.464844 207.769531 L 477.308594 259.8125 " fill-opacity="1" fill-rule="evenodd"/><path fill="#e55a19" d="M 447.132812 191.476562 L 446.300781 191.648438 C 437.957031 193.371094 432.054688 200.84375 432.3125 209.363281 C 433.359375 244.191406 433.957031 262.621094 434.09375 264.585938 C 434.109375 264.820312 433.933594 265.019531 433.703125 265.035156 C 433.46875 265.050781 433.269531 264.878906 433.253906 264.644531 C 433.113281 262.664062 432.519531 244.265625 431.46875 209.390625 C 431.199219 200.460938 437.382812 192.628906 446.128906 190.824219 L 446.992188 190.644531 L 447.046875 190.636719 C 457.578125 189.902344 466.953125 197.273438 468.722656 207.679688 L 477.566406 259.726562 C 477.605469 259.953125 477.453125 260.171875 477.222656 260.210938 C 476.992188 260.25 476.773438 260.097656 476.734375 259.867188 L 467.890625 207.820312 C 466.195312 197.847656 457.222656 190.785156 447.132812 191.476562 Z M 447.132812 191.476562 " fill-opacity="1" fill-rule="nonzero"/><path fill="#ffffff" d="M 426.96875 260.054688 L 422.449219 224.921875 C 422.015625 221.539062 424.402344 218.445312 427.789062 218.007812 C 428.046875 217.976562 428.3125 217.957031 428.574219 217.957031 C 432.761719 217.957031 436.472656 220.652344 437.773438 224.632812 L 449.351562 260.078125 Z M 426.96875 260.054688 " fill-opacity="1" fill-rule="evenodd"/><path fill="#e55a19" d="M 426.605469 260.21875 C 426.394531 260.21875 426.214844 260.058594 426.1875 259.851562 L 421.671875 224.71875 C 421.203125 221.105469 423.757812 217.796875 427.371094 217.332031 C 427.648438 217.296875 427.929688 217.28125 428.210938 217.28125 C 432.582031 217.28125 436.457031 220.089844 437.8125 224.242188 L 449.390625 259.6875 C 449.480469 259.960938 449.277344 260.238281 448.988281 260.238281 Z M 426.976562 259.375 L 448.410156 259.398438 L 437.011719 224.503906 C 435.769531 220.699219 432.21875 218.121094 428.210938 218.121094 C 427.96875 218.121094 427.722656 218.136719 427.476562 218.167969 C 424.324219 218.574219 422.101562 221.457031 422.503906 224.609375 Z M 426.976562 259.375 " fill-opacity="1" fill-rule="nonzero"/><path fill="#ffd1d1" d="M 538.363281 346.277344 L 495.472656 332.296875 C 490.613281 330.714844 487.066406 326.515625 486.320312 321.457031 L 477.152344 259.515625 L 427.453125 259.515625 L 436.246094 338.21875 C 437.792969 352.082031 445.261719 364.597656 456.726562 372.546875 L 505.511719 406.367188 Z M 538.363281 346.277344 " fill-opacity="1" fill-rule="evenodd"/><path fill="#ffafaf" d="M 435.3125 331.117188 C 445.234375 336.546875 452.441406 342.722656 456.933594 349.648438 C 461.425781 356.574219 465.265625 366.964844 468.445312 380.816406 C 465.699219 378.8125 463.359375 377.128906 461.425781 375.761719 C 453.515625 370.171875 447.4375 365.085938 443.738281 359.195312 C 438.683594 351.144531 435.875 341.785156 435.3125 331.117188 Z M 435.3125 331.117188 " fill-opacity="1" fill-rule="evenodd"/><path fill="#e55a19" d="M 489.296875 327.519531 C 489.292969 327.511719 489.289062 327.507812 489.285156 327.5 C 489.277344 327.484375 489.265625 327.472656 489.25 327.457031 C 487.898438 325.714844 486.984375 323.628906 486.648438 321.359375 L 477.488281 259.476562 C 477.457031 259.269531 477.28125 259.117188 477.070312 259.117188 L 427.371094 259.117188 C 427.121094 259.117188 426.925781 259.335938 426.953125 259.585938 L 430.773438 293.765625 C 430.707031 293.847656 430.671875 293.953125 430.683594 294.066406 C 430.691406 294.1875 430.753906 294.289062 430.839844 294.359375 L 435.742188 338.242188 C 437.308594 352.253906 444.867188 364.898438 456.46875 372.914062 L 504.988281 406.433594 C 505.144531 406.539062 505.355469 406.53125 505.5 406.410156 C 512.175781 400.839844 517.734375 393.777344 522.171875 385.222656 C 526.59375 376.6875 531.5625 363.46875 537.082031 345.558594 C 537.148438 345.339844 537.027344 345.105469 536.804688 345.035156 L 495.59375 331.886719 C 493.054688 331.078125 490.882812 329.535156 489.296875 327.519531 Z M 522.964844 341.503906 L 536.152344 345.710938 C 530.699219 363.375 525.785156 376.417969 521.421875 384.832031 C 517.089844 393.1875 511.683594 400.09375 505.207031 405.558594 L 492.839844 397.015625 Z M 522.148438 341.242188 L 492.140625 396.535156 L 456.945312 372.21875 C 445.546875 364.34375 438.117188 351.917969 436.578125 338.148438 L 431.691406 294.398438 L 481.121094 289.957031 C 481.128906 289.953125 481.136719 289.953125 481.148438 289.953125 L 485.8125 321.484375 C 486.152344 323.761719 487.039062 325.871094 488.347656 327.65625 L 458.933594 348.746094 C 458.746094 348.878906 458.703125 349.144531 458.839844 349.332031 C 458.972656 349.519531 459.238281 349.5625 459.425781 349.429688 L 488.863281 328.320312 C 490.53125 330.328125 492.757812 331.867188 495.339844 332.691406 Z M 481.023438 289.117188 L 431.597656 293.5625 L 427.84375 259.960938 L 476.707031 259.960938 Z M 481.023438 289.117188 " fill-opacity="1" fill-rule="nonzero"/><path fill="#ffafaf" d="M 615.582031 354.984375 C 615.582031 354.984375 628.683594 361.816406 654.890625 375.480469 L 643.738281 395.953125 L 609.964844 373.210938 C 613.707031 361.058594 615.582031 354.984375 615.582031 354.984375 Z M 615.582031 354.984375 " fill-opacity="1" fill-rule="evenodd"/><path fill="#ffffff" d="M 355.007812 447.925781 L 363.148438 381.65625 L 358.9375 379.691406 L 341.53125 353.859375 L 338.441406 353.015625 C 337.324219 352.75 336.480469 352.75 335.914062 353.015625 C 335.347656 353.285156 334.597656 354.03125 333.667969 355.261719 L 333.667969 433.886719 C 334.285156 435.371094 334.847656 436.402344 335.351562 436.972656 C 335.859375 437.546875 336.699219 438.105469 337.878906 438.65625 Z M 429.976562 506.328125 L 376.628906 486.671875 L 374.101562 493.972656 L 339.285156 502.957031 L 337.878906 505.484375 C 338.195312 507.34375 338.570312 508.652344 339.003906 509.417969 C 339.433594 510.179688 340.277344 511.023438 341.53125 511.945312 L 414.253906 529.070312 C 415.757812 529.222656 416.976562 529.035156 417.902344 528.511719 C 418.832031 527.984375 419.769531 526.957031 420.710938 525.421875 Z M 429.976562 506.328125 " fill-opacity="1" fill-rule="evenodd"/><path fill="#e55a19" d="M 615.976562 354.632812 L 655.285156 375.128906 C 655.496094 375.238281 655.574219 375.5 655.460938 375.707031 L 644.308594 396.179688 C 644.191406 396.398438 643.910156 396.464844 643.703125 396.328125 L 609.929688 373.585938 C 609.777344 373.480469 609.707031 373.289062 609.761719 373.109375 L 615.378906 354.882812 C 615.457031 354.628906 615.742188 354.511719 615.976562 354.632812 Z M 610.660156 373.058594 L 643.792969 395.371094 L 654.515625 375.679688 L 616.035156 355.613281 Z M 610.660156 373.058594 " fill-opacity="1" fill-rule="nonzero"/><path fill="#ffd1d1" d="M 495.121094 424.617188 L 495.121094 425.484375 L 533.589844 351.050781 L 588.0625 374.078125 C 587.046875 407.320312 582.394531 429.40625 574.101562 440.34375 C 565.8125 451.277344 551.089844 454.742188 529.941406 450.730469 L 499.332031 450.730469 Z M 495.121094 424.617188 " fill-opacity="1" fill-rule="evenodd"/><path fill="#e55a19" d="M 494.621094 424.617188 L 494.621094 425.484375 C 494.621094 425.648438 494.703125 425.769531 494.8125 425.839844 L 498.839844 450.800781 C 498.871094 451.003906 499.046875 451.152344 499.253906 451.152344 L 529.820312 451.152344 C 551.089844 455.175781 565.960938 451.675781 574.359375 440.597656 C 582.71875 429.574219 587.386719 407.414062 588.40625 374.089844 C 588.410156 373.917969 588.308594 373.757812 588.148438 373.6875 L 533.675781 350.664062 C 533.472656 350.578125 533.238281 350.664062 533.136719 350.859375 L 495.214844 424.230469 C 494.96875 424.128906 494.621094 424.269531 494.621094 424.617188 Z M 494.730469 425.324219 L 494.710938 425.207031 L 494.773438 425.085938 C 494.734375 425.160156 494.722656 425.242188 494.730469 425.324219 Z M 533.707031 351.589844 L 587.554688 374.351562 C 586.523438 407.351562 581.886719 429.273438 573.6875 440.089844 C 565.507812 450.875 550.949219 454.300781 529.9375 450.316406 L 529.859375 450.3125 L 499.613281 450.3125 L 495.585938 425.347656 Z M 533.707031 351.589844 " fill-opacity="1" fill-rule="nonzero"/><path fill="#ffafaf" d="M 505.230469 406.367188 L 502.421875 411.703125 C 511.050781 418.507812 517.882812 423.28125 522.917969 426.023438 C 527.957031 428.765625 533.480469 431.289062 539.484375 433.605469 L 542.855469 427.707031 C 537.378906 425.34375 532.136719 422.722656 527.132812 419.84375 C 522.125 416.96875 514.824219 412.476562 505.230469 406.367188 Z M 505.230469 406.367188 " fill-opacity="1" fill-rule="evenodd"/><path fill="#ffafaf" d="M 488.664062 520.648438 L 355.570312 448.484375 L 362.871094 381.9375 L 494.839844 446.800781 " fill-opacity="1" fill-rule="evenodd"/><path fill="#e55a19" d="M 505.464844 405.738281 C 515.335938 412.390625 523.003906 417.253906 528.460938 420.320312 C 533.90625 423.382812 539.03125 425.710938 543.832031 427.308594 C 544.050781 427.382812 544.171875 427.621094 544.097656 427.839844 C 544.023438 428.0625 543.785156 428.179688 543.566406 428.105469 C 538.710938 426.492188 533.539062 424.140625 528.046875 421.054688 C 522.566406 417.976562 514.882812 413.101562 504.996094 406.4375 C 504.800781 406.304688 504.75 406.042969 504.882812 405.851562 C 505.011719 405.660156 505.273438 405.609375 505.464844 405.738281 Z M 505.464844 405.738281 " fill-opacity="1" fill-rule="nonzero"/><path fill="#e55a19" d="M 502.476562 411.367188 C 511.640625 418.316406 519.644531 423.640625 526.488281 427.335938 C 533.304688 431.015625 537.949219 432.96875 540.367188 433.183594 C 540.597656 433.207031 540.769531 433.410156 540.746094 433.640625 C 540.726562 433.875 540.523438 434.042969 540.289062 434.023438 C 537.71875 433.792969 533.003906 431.8125 526.089844 428.078125 C 519.203125 424.359375 511.164062 419.011719 501.964844 412.039062 C 501.78125 411.898438 501.746094 411.632812 501.886719 411.449219 C 502.027344 411.261719 502.289062 411.226562 502.476562 411.367188 Z M 502.476562 411.367188 " fill-opacity="1" fill-rule="nonzero"/><path fill="#e55a19" d="M 355.878906 448.105469 C 355.894531 448.070312 355.90625 448.03125 355.910156 447.992188 L 363.207031 382.308594 L 494.855469 447.179688 C 495.0625 447.28125 495.316406 447.195312 495.421875 446.988281 C 495.523438 446.777344 495.4375 446.527344 495.226562 446.421875 L 359.707031 379.644531 L 342.371094 354.085938 C 341.761719 353.1875 340.738281 352.65625 339.652344 352.667969 C 339.265625 352.675781 338.898438 352.75 338.558594 352.878906 C 338.535156 352.839844 338.496094 352.792969 338.441406 352.738281 C 338.253906 352.550781 338.035156 352.429688 337.785156 352.382812 C 337.53125 352.332031 337.273438 352.304688 337.015625 352.304688 C 334.835938 352.300781 333.066406 354.066406 333.0625 356.246094 L 332.945312 431.667969 C 332.9375 434.910156 334.554688 438.105469 337.660156 438.886719 L 337.660156 438.945312 C 337.660156 439.097656 337.746094 439.238281 337.878906 439.308594 L 488.664062 521.019531 C 488.867188 521.128906 489.125 521.054688 489.234375 520.847656 C 489.347656 520.644531 489.269531 520.390625 489.066406 520.277344 Z M 355.097656 447.679688 L 338.5 438.6875 L 337.3125 355.933594 C 337.292969 354.617188 338.347656 353.53125 339.664062 353.511719 C 340.46875 353.5 341.222656 353.894531 341.671875 354.558594 L 359.074219 380.210938 C 359.113281 380.269531 359.167969 380.320312 359.234375 380.351562 L 362.484375 381.953125 C 362.421875 382.015625 362.382812 382.097656 362.371094 382.195312 Z M 337.691406 353.371094 C 336.933594 353.972656 336.457031 354.90625 336.46875 355.945312 L 337.648438 438.011719 C 335.0625 437.226562 333.78125 434.449219 333.785156 431.671875 L 333.90625 356.25 C 333.90625 354.53125 335.300781 353.144531 337.015625 353.148438 C 337.21875 353.148438 337.421875 353.167969 337.621094 353.207031 C 337.644531 353.269531 337.667969 353.324219 337.691406 353.371094 Z M 337.691406 353.371094 " fill-opacity="1" fill-rule="nonzero"/><path fill="#ffd1d1" d="M 594.800781 438.117188 L 590.511719 461.421875 L 558.503906 517.917969 C 550.082031 532.78125 532.132812 539.355469 516.101562 533.445312 L 504.882812 529.308594 C 494.089844 525.328125 484.78125 518.132812 478.210938 508.691406 L 449.21875 467.019531 L 429.976562 506.328125 L 376.628906 486.671875 L 414.132812 397.972656 C 418.242188 388.253906 427.769531 381.9375 438.324219 381.9375 C 449.472656 381.9375 460.167969 386.355469 468.066406 394.222656 L 518.347656 444.292969 " fill-opacity="1" fill-rule="evenodd"/><path fill="#ffafaf" d="M 470.132812 396.257812 C 461.144531 403.183594 451.785156 408.144531 442.054688 411.140625 C 432.320312 414.136719 421.554688 413.480469 409.761719 409.175781 C 412.394531 400.453125 415.296875 394.371094 418.464844 390.925781 C 422.242188 386.816406 429.285156 383.164062 433.347656 382.21875 C 438.675781 380.980469 448.519531 382.414062 456.371094 386.152344 C 460.152344 387.949219 464.738281 391.316406 470.132812 396.257812 Z M 470.132812 396.257812 " fill-opacity="1" fill-rule="evenodd"/><path fill="#e55a19" d="M 338.015625 504.582031 L 337.863281 504.542969 L 337.855469 504.570312 C 336.980469 508.195312 339.214844 511.847656 342.839844 512.722656 L 412.984375 529.628906 C 416.152344 530.394531 419.421875 528.9375 420.980469 526.097656 C 421.113281 526.078125 421.230469 525.992188 421.292969 525.867188 L 449.285156 467.832031 L 477.867188 508.910156 C 484.484375 518.421875 493.863281 525.675781 504.738281 529.683594 L 515.957031 533.820312 C 532.179688 539.800781 550.347656 533.148438 558.871094 518.101562 L 590.875 461.609375 C 590.898438 461.570312 590.914062 461.523438 590.925781 461.476562 L 595.214844 438.171875 C 595.257812 437.945312 595.105469 437.722656 594.878906 437.683594 C 594.648438 437.640625 594.429688 437.792969 594.386719 438.019531 L 590.109375 461.257812 L 558.136719 517.6875 C 549.816406 532.371094 532.082031 538.867188 516.246094 533.027344 L 505.027344 528.894531 C 494.316406 524.945312 485.078125 517.800781 478.558594 508.429688 L 449.5625 466.757812 C 449.378906 466.492188 448.980469 466.523438 448.839844 466.8125 L 429.996094 505.886719 L 377.246094 486.453125 L 408.902344 411.460938 C 427.632812 420.589844 448.570312 416.210938 471.664062 398.378906 L 518.050781 444.570312 C 518.214844 444.738281 518.480469 444.734375 518.644531 444.570312 C 518.808594 444.40625 518.808594 444.140625 518.644531 443.976562 L 468.363281 393.902344 C 460.386719 385.957031 449.582031 381.496094 438.324219 381.496094 C 427.601562 381.496094 417.925781 387.917969 413.753906 397.792969 L 376.382812 486.332031 C 376.316406 486.378906 376.261719 486.445312 376.234375 486.527344 C 376.207031 486.597656 376.203125 486.667969 376.210938 486.734375 L 373.433594 493.316406 L 340.445312 501.644531 C 339.269531 501.941406 338.355469 502.875 338.089844 504.0625 C 338.046875 504.234375 338.023438 504.410156 338.015625 504.582031 Z M 338.519531 506.519531 C 338.960938 507.207031 339.664062 507.730469 340.523438 507.925781 L 420.105469 525.929688 C 418.679688 528.277344 415.886719 529.464844 413.183594 528.8125 L 343.039062 511.902344 C 340.453125 511.277344 338.675781 509.042969 338.519531 506.519531 Z M 429.625 506.648438 L 420.679688 525.199219 L 340.710938 507.101562 C 339.425781 506.8125 338.617188 505.535156 338.910156 504.25 C 339.109375 503.371094 339.78125 502.679688 340.652344 502.460938 L 373.84375 494.082031 C 373.972656 494.046875 374.078125 493.957031 374.128906 493.835938 L 376.917969 487.226562 Z M 409.230469 410.683594 L 414.53125 398.121094 C 418.570312 388.558594 427.941406 382.339844 438.324219 382.339844 C 449.359375 382.339844 459.949219 386.710938 467.769531 394.5 L 471.058594 397.777344 C 448.21875 415.390625 427.625 419.671875 409.230469 410.683594 Z M 409.230469 410.683594 " fill-opacity="1" fill-rule="nonzero"/><path fill="#ffd1d1" d="M 567.285156 345.4375 L 672.308594 412.507812 C 696.199219 427.765625 704.972656 458.429688 692.769531 484.015625 L 685.238281 499.804688 C 671.886719 527.796875 638.367188 539.664062 610.375 526.3125 C 608.878906 525.601562 607.417969 524.820312 605.988281 523.980469 L 557.945312 495.597656 C 548.996094 490.3125 541.691406 482.648438 536.839844 473.457031 L 536.257812 472.351562 C 531.230469 462.828125 531.074219 451.472656 535.835938 441.8125 L 547.628906 417.878906 C 565.136719 430.933594 574.589844 439.917969 575.988281 444.835938 C 577.234375 449.21875 591.511719 458.253906 618.8125 471.9375 C 624.734375 474.902344 631.945312 472.824219 635.375 467.160156 C 638.132812 462.609375 636.675781 456.683594 632.125 453.929688 C 631.605469 453.613281 631.058594 453.347656 630.488281 453.136719 L 579.359375 434.164062 " fill-opacity="1" fill-rule="evenodd"/><path fill="#ffafaf" d="M 694.199219 481.339844 C 692.796875 485.269531 686.699219 497.574219 684.375 501.554688 C 681.925781 505.742188 679.320312 509.699219 675.949219 513.628906 C 672.613281 517.519531 668.125 521.371094 661.347656 524.859375 C 659.082031 526.027344 656.648438 527.246094 654.046875 528.511719 C 655.796875 513.753906 657.761719 503.457031 659.945312 497.625 C 661.714844 492.894531 663.511719 488.152344 666.121094 484.425781 C 672.671875 475.066406 683.261719 465.605469 697.890625 456.042969 C 699.175781 462.421875 697.945312 470.855469 694.199219 481.339844 Z M 694.199219 481.339844 " fill-opacity="1" fill-rule="evenodd"/><path fill="#ffffff" d="M 574.023438 439.5 L 573.460938 446.800781 C 566.703125 459.589844 562.550781 467.3125 561 469.964844 C 559.367188 472.753906 556.128906 479.636719 551.28125 490.605469 C 545.847656 485.898438 541.542969 481.03125 538.363281 476.003906 C 535.183594 470.972656 533.21875 465.917969 532.464844 460.839844 C 531.71875 454.101562 533.589844 446.519531 538.082031 438.097656 C 540.324219 433.894531 543.597656 426.875 547.910156 417.039062 C 560.128906 423.507812 568.644531 428.84375 573.460938 433.042969 C 578.277344 437.242188 578.464844 439.394531 574.023438 439.5 Z M 574.023438 439.5 " fill-opacity="1" fill-rule="evenodd"/><path fill="#e55a19" d="M 536.414062 441.742188 C 531.710938 451.277344 531.867188 462.492188 536.832031 471.898438 L 537.414062 473.003906 C 542.230469 482.125 549.480469 489.734375 558.359375 494.980469 L 606.578125 523.460938 C 607.941406 524.265625 609.339844 525.011719 610.765625 525.699219 C 638.503906 539.042969 671.808594 527.371094 685.152344 499.628906 L 692.40625 484.550781 C 704.53125 459.339844 696.089844 429.046875 672.675781 413.738281 L 568.738281 345.789062 C 568.542969 345.660156 568.488281 345.402344 568.617188 345.207031 C 568.746094 345.011719 569.003906 344.957031 569.199219 345.082031 L 673.136719 413.035156 C 696.90625 428.574219 705.472656 459.324219 693.164062 484.917969 L 685.914062 499.996094 C 672.367188 528.152344 638.558594 540.003906 610.398438 526.457031 C 608.953125 525.761719 607.535156 525.003906 606.148438 524.183594 L 557.929688 495.703125 C 548.917969 490.378906 541.554688 482.65625 536.667969 473.398438 L 536.085938 472.292969 C 530.996094 462.648438 530.835938 451.148438 535.65625 441.367188 L 547.453125 417.4375 C 547.550781 417.234375 547.796875 417.144531 548.003906 417.238281 C 561.96875 423.5 570.535156 428.183594 573.757812 431.339844 C 575.226562 432.777344 576.046875 434.601562 576.378906 436.808594 C 576.585938 438.1875 576.601562 439.375 576.515625 441.503906 C 576.441406 443.371094 576.449219 443.945312 576.59375 444.464844 C 577.789062 448.667969 592.085938 457.710938 619.203125 471.300781 C 624.929688 474.171875 631.898438 472.160156 635.214844 466.683594 C 637.8125 462.398438 636.441406 456.820312 632.15625 454.226562 C 631.628906 453.90625 631.070312 453.640625 630.488281 453.433594 L 577.25 434.5625 C 577.03125 434.484375 576.917969 434.242188 576.996094 434.023438 C 577.074219 433.804688 577.3125 433.691406 577.535156 433.769531 L 630.769531 452.640625 C 631.40625 452.867188 632.015625 453.15625 632.59375 453.507812 C 637.277344 456.339844 638.773438 462.4375 635.9375 467.121094 C 632.390625 472.972656 624.945312 475.121094 618.828125 472.054688 C 591.339844 458.28125 577.082031 449.257812 575.785156 444.691406 C 575.601562 444.050781 575.597656 443.464844 575.675781 441.46875 C 575.757812 439.394531 575.746094 438.242188 575.546875 436.933594 C 575.238281 434.894531 574.496094 433.242188 573.167969 431.941406 C 570.074219 428.910156 561.679688 424.308594 548.027344 418.171875 Z M 536.414062 441.742188 " fill-opacity="1" fill-rule="nonzero"/><path stroke-linecap="round" transform="matrix(-0.999703, 0, 0, 0.999703, 724.525986, 127.321275)" fill-opacity="1" fill="#ffd1d1" fill-rule="evenodd" stroke-linejoin="round" d="M 191.071003 223.741257 C 181.255589 201.937907 175.359307 187.44923 173.37825 180.286947 C 166.95056 157.053486 162.46876 136.793563 138.469446 136.793563 C 114.470132 136.793563 95.015137 156.248559 95.015137 180.247873 C 95.015137 187.085841 100.911419 209.006413 112.70789 246.009588 C 130.107588 245.939254 144.18208 245.071809 154.935273 243.41116 C 165.688466 241.746603 177.735012 235.189969 191.071003 223.741257 Z M 191.071003 223.741257 " stroke="#f56843" stroke-width="0.843" stroke-opacity="1" stroke-miterlimit="4"/><path stroke-linecap="round" transform="matrix(-0.999703, 0, 0, 0.999703, 724.525986, 127.321275)" fill-opacity="1" fill="#ffd1d1" fill-rule="evenodd" stroke-linejoin="round" d="M 190.992855 223.674831 C 181.17744 201.867574 175.281158 187.382804 173.296194 180.216614 C 166.872411 156.98706 162.390612 136.727138 138.387391 136.727138 C 114.388077 136.727138 94.933081 156.182133 94.933081 180.181447 C 94.933081 187.019415 100.833271 208.936079 112.629742 245.943162 C 130.025533 245.872828 144.103932 245.005383 154.857125 243.344734 C 165.610318 241.680177 177.656864 235.123543 190.992855 223.674831 Z M 190.992855 223.674831 " stroke="#f56843" stroke-width="0.843" stroke-opacity="1" stroke-miterlimit="4"/><path fill="#e55a19" d="M 533.207031 350.757812 C 543.007812 328.976562 548.898438 314.507812 550.875 307.375 C 551.132812 306.4375 552.277344 302.269531 552.585938 301.15625 C 556.363281 287.519531 558.980469 280.554688 563.191406 274.703125 C 568.507812 267.3125 575.777344 263.585938 586.175781 263.585938 C 610.402344 263.585938 630.039062 283.226562 630.039062 307.449219 C 630.039062 314.351562 624.144531 336.265625 612.332031 373.316406 C 612.273438 373.496094 612.113281 373.613281 611.929688 373.613281 C 594.515625 373.542969 580.425781 372.675781 569.652344 371.007812 C 558.8125 369.332031 546.703125 362.742188 533.316406 351.25 C 533.171875 351.125 533.128906 350.925781 533.207031 350.757812 Z M 569.777344 370.175781 C 580.441406 371.824219 594.390625 372.6875 611.621094 372.769531 C 623.332031 336.015625 629.199219 314.203125 629.199219 307.449219 C 629.199219 283.691406 609.9375 264.429688 586.175781 264.429688 C 576.050781 264.429688 569.03125 268.027344 563.875 275.195312 C 559.742188 280.9375 557.148438 287.839844 553.398438 301.382812 C 553.089844 302.492188 551.945312 306.664062 551.683594 307.597656 C 549.703125 314.757812 543.84375 329.15625 534.101562 350.8125 C 547.285156 362.085938 559.183594 368.539062 569.777344 370.175781 Z M 569.777344 370.175781 " fill-opacity="1" fill-rule="nonzero"/><path fill="#e55a19" d="M 606.496094 327.441406 C 606.496094 327.441406 583.042969 336.652344 547.398438 324.128906 C 546.785156 323.914062 546.113281 323.527344 545.382812 322.972656 C 547.226562 319.285156 548.347656 316.757812 548.753906 315.390625 C 550.394531 309.824219 550.546875 306.289062 552.402344 302.757812 C 553.601562 300.472656 554.023438 296.574219 555.210938 292.929688 C 555.851562 290.960938 557.070312 287.871094 558.859375 283.664062 C 560.640625 280.128906 561.859375 277.789062 562.511719 276.644531 C 563.511719 274.890625 563.511719 273.179688 564.8125 273.367188 C 571.859375 274.394531 579.453125 278.960938 587.601562 287.074219 C 606.539062 305.925781 606.496094 327.441406 606.496094 327.441406 Z M 606.496094 327.441406 " fill-opacity="1" fill-rule="nonzero"/><path fill="#ffffff" d="M 591.429688 291.242188 C 589.464844 288.996094 588.378906 287.589844 586.660156 285.910156 C 584.9375 284.226562 582.726562 282.257812 578.796875 279.449219 C 576.738281 284.878906 574.679688 290.777344 572.058594 298.824219 C 568.125 310.898438 574.351562 312.804688 581.886719 304.722656 C 586.90625 299.335938 589.902344 295.03125 591.429688 291.242188 Z M 569.160156 290.546875 C 567.757812 290.644531 566.996094 296.722656 566.570312 297.765625 C 566.328125 298.34375 566.609375 299.011719 567.191406 299.25 C 567.71875 299.46875 568.332031 299.253906 568.613281 298.753906 C 570.253906 295.84375 571.066406 294.09375 571.054688 293.511719 C 571.027344 292.035156 570.5625 290.449219 569.160156 290.546875 Z M 569.160156 290.546875 " fill-opacity="1" fill-rule="evenodd"/><path fill="#e55a19" d="M 577.03125 433.042969 C 558.113281 433.042969 542.777344 417.703125 542.777344 398.785156 C 542.777344 379.867188 558.113281 364.53125 577.03125 364.53125 C 595.949219 364.53125 611.289062 379.867188 611.289062 398.785156 C 611.289062 417.703125 595.949219 433.042969 577.03125 433.042969 Z M 577.03125 433.042969 " fill-opacity="1" fill-rule="nonzero"/><path fill="#e55a19" d="M 606.105469 324.566406 C 609.066406 311.425781 604.714844 298.929688 593.019531 287.046875 C 581.316406 275.160156 573.050781 269.402344 568.359375 269.761719 C 568.128906 269.78125 568.425781 269.855469 568.40625 269.621094 C 568.390625 269.390625 568.457031 269.359375 568.6875 269.34375 C 568.820312 269.332031 568.566406 268.90625 568.707031 268.90625 C 573.789062 268.851562 582.050781 274.703125 593.617188 286.457031 C 605.507812 298.53125 609.953125 311.3125 606.925781 324.75 C 606.875 324.976562 606.648438 325.121094 606.421875 325.070312 C 606.195312 325.015625 606.054688 324.792969 606.105469 324.566406 Z M 606.105469 324.566406 " fill-opacity="1" fill-rule="nonzero"/><path fill="#ffffff" d="M 599.214844 425.460938 L 586.578125 393.148438 L 554.886719 383.964844 C 553.695312 383.617188 552.449219 384.304688 552.105469 385.496094 C 551.898438 386.214844 552.058594 386.988281 552.539062 387.5625 L 570.574219 409.175781 L 572.058594 433.042969 Z M 599.214844 425.460938 " fill-opacity="1" fill-rule="evenodd"/><path fill="#ffd1d1" d="M 586.648438 393.171875 C 590.960938 397.878906 593.699219 400.976562 594.871094 402.457031 C 601.019531 410.238281 600.792969 413.179688 597.882812 415.070312 C 592.265625 418.722656 586.449219 426.042969 582.515625 419.304688 C 579.898438 414.8125 581.273438 406.101562 586.648438 393.171875 Z M 586.648438 393.171875 " fill-opacity="1" fill-rule="evenodd"/><path fill="#e55a19" d="M 586.890625 392.867188 C 586.683594 392.636719 586.308594 392.703125 586.191406 392.988281 C 580.765625 406.035156 579.371094 414.847656 582.082031 419.496094 C 583.628906 422.144531 585.597656 422.945312 588.007812 422.175781 C 589.753906 421.621094 591.070312 420.71875 594.574219 417.964844 C 595.414062 417.304688 595.90625 416.925781 596.433594 416.53125 C 597.015625 416.097656 597.539062 415.730469 598.039062 415.40625 C 601.570312 413.109375 600.925781 409.507812 595.132812 402.175781 C 593.953125 400.683594 591.207031 397.582031 586.890625 392.867188 Z M 582.8125 419.070312 C 580.320312 414.800781 581.597656 406.398438 586.714844 393.921875 C 590.761719 398.351562 593.351562 401.277344 594.46875 402.699219 C 600 409.695312 600.550781 412.769531 597.582031 414.699219 C 597.066406 415.035156 596.527344 415.414062 595.929688 415.855469 C 595.394531 416.253906 594.898438 416.636719 594.054688 417.300781 C 590.648438 419.980469 589.359375 420.863281 587.753906 421.371094 C 585.722656 422.019531 584.160156 421.386719 582.8125 419.070312 Z M 569.597656 408.09375 C 569.464844 407.902344 569.199219 407.855469 569.007812 407.988281 C 568.816406 408.121094 568.769531 408.382812 568.902344 408.574219 C 570.535156 410.921875 572.035156 412.125 573.460938 412.125 C 573.695312 412.125 573.882812 411.933594 573.882812 411.703125 C 573.882812 411.46875 573.695312 411.28125 573.460938 411.28125 C 572.390625 411.28125 571.085938 410.234375 569.597656 408.09375 Z M 569.597656 408.09375 " fill-opacity="1" fill-rule="nonzero"/><path fill="#ffffff" d="M 608 332.519531 C 605.671875 332.519531 603.785156 330.632812 603.785156 328.308594 C 603.785156 325.980469 605.671875 324.097656 608 324.097656 C 610.324219 324.097656 612.210938 325.980469 612.210938 328.308594 C 612.210938 330.632812 610.324219 332.519531 608 332.519531 Z M 608 332.519531 " fill-opacity="1" fill-rule="nonzero"/><path fill="#e55a19" d="M 608.199219 332.941406 C 605.640625 332.941406 603.566406 330.867188 603.566406 328.308594 C 603.566406 325.75 605.640625 323.675781 608.199219 323.675781 C 610.757812 323.675781 612.832031 325.75 612.832031 328.308594 C 612.832031 330.867188 610.757812 332.941406 608.199219 332.941406 Z M 608.199219 332.097656 C 610.292969 332.097656 611.992188 330.402344 611.992188 328.308594 C 611.992188 326.214844 610.292969 324.519531 608.199219 324.519531 C 606.105469 324.519531 604.410156 326.214844 604.410156 328.308594 C 604.410156 330.402344 606.105469 332.097656 608.199219 332.097656 Z M 608.199219 332.097656 " fill-opacity="1" fill-rule="nonzero"/><path fill="#e55a19" d="M 608.199219 330.695312 C 606.738281 330.695312 605.53125 329.640625 605.53125 328.308594 C 605.53125 326.976562 606.738281 325.921875 608.199219 325.921875 C 609.660156 325.921875 610.867188 326.976562 610.867188 328.308594 C 610.867188 329.640625 609.660156 330.695312 608.199219 330.695312 Z M 608.199219 329.851562 C 609.21875 329.851562 610.023438 329.148438 610.023438 328.308594 C 610.023438 327.46875 609.21875 326.765625 608.199219 326.765625 C 607.179688 326.765625 606.375 327.46875 606.375 328.308594 C 606.375 329.148438 607.179688 329.851562 608.199219 329.851562 Z M 608.199219 329.851562 " fill-opacity="1" fill-rule="nonzero"/><path fill="#ffffff" d="M 572.058594 431.078125 L 573.664062 446.800781 L 597.53125 460.839844 L 616.421875 470.667969 L 625.6875 458.3125 C 617.941406 457.863281 613.542969 456.648438 612.492188 454.664062 C 609.382812 448.789062 604.984375 439.148438 599.292969 425.742188 Z M 572.058594 431.078125 " fill-opacity="1" fill-rule="evenodd"/><path fill="#e55a19" d="M 571.976562 430.382812 C 571.761719 430.425781 571.617188 430.621094 571.636719 430.839844 L 573.242188 446.5625 C 573.257812 446.695312 573.332031 446.816406 573.449219 446.882812 L 597.335938 460.933594 L 616.226562 470.761719 C 616.410156 470.855469 616.636719 470.804688 616.757812 470.640625 L 626.023438 458.285156 C 626.226562 458.015625 626.046875 457.632812 625.710938 457.613281 C 618.121094 457.171875 613.8125 455.980469 612.863281 454.183594 C 609.761719 448.324219 605.367188 438.691406 599.683594 425.296875 C 599.605469 425.113281 599.40625 425.011719 599.214844 425.046875 Z M 599.039062 425.941406 C 604.667969 439.195312 609.027344 448.738281 612.121094 454.578125 C 613.230469 456.679688 617.464844 457.910156 624.882812 458.40625 L 616.300781 469.847656 L 597.742188 460.195312 L 574.0625 446.265625 L 572.515625 431.136719 Z M 573.875 446.15625 L 574.082031 446.476562 L 574.0625 446.265625 Z M 573.875 446.15625 " fill-opacity="1" fill-rule="nonzero"/><path fill="#ffffff" d="M 674.546875 316.234375 C 677.335938 316.234375 679.601562 313.972656 679.601562 311.179688 C 679.601562 308.386719 677.335938 306.125 674.546875 306.125 C 671.753906 306.125 669.492188 308.386719 669.492188 311.179688 C 669.492188 313.972656 671.753906 316.234375 674.546875 316.234375 Z M 625.125 328.871094 L 623.800781 333.925781 C 624.121094 334.03125 624.433594 334.148438 624.746094 334.273438 C 633.625 337.867188 637.910156 347.980469 634.316406 356.859375 L 631.664062 363.40625 L 636.71875 366.214844 L 639.707031 356.480469 C 642.933594 345.980469 637.882812 334.714844 627.898438 330.140625 Z M 625.125 328.871094 " fill-opacity="1" fill-rule="evenodd"/><path fill="#e55a19" d="M 662.898438 334.828125 C 662.882812 334.742188 662.898438 334.652344 662.9375 334.574219 L 672.484375 315.761719 C 672.589844 315.554688 672.84375 315.472656 673.050781 315.578125 C 673.257812 315.683594 673.339844 315.9375 673.234375 316.144531 L 663.75 334.835938 L 664.855469 342.285156 C 664.882812 342.476562 664.777344 342.664062 664.601562 342.734375 L 656.898438 345.960938 L 644.308594 369.351562 C 644.199219 369.558594 643.945312 369.632812 643.738281 369.523438 C 643.535156 369.414062 643.457031 369.160156 643.570312 368.953125 L 656.226562 345.429688 C 656.273438 345.34375 656.347656 345.277344 656.4375 345.238281 L 663.972656 342.085938 Z M 662.898438 334.828125 " fill-opacity="1" fill-rule="nonzero"/><path fill="#e55a19" d="M 674.746094 316.65625 C 677.769531 316.65625 680.222656 314.203125 680.222656 311.179688 C 680.222656 308.15625 677.769531 305.703125 674.746094 305.703125 C 671.722656 305.703125 669.273438 308.15625 669.273438 311.179688 C 669.273438 314.203125 671.722656 316.65625 674.746094 316.65625 Z M 674.746094 315.8125 C 672.1875 315.8125 670.113281 313.738281 670.113281 311.179688 C 670.113281 308.621094 672.1875 306.546875 674.746094 306.546875 C 677.304688 306.546875 679.378906 308.621094 679.378906 311.179688 C 679.378906 313.738281 677.304688 315.8125 674.746094 315.8125 Z M 625.503906 328.488281 C 625.265625 328.378906 624.988281 328.507812 624.921875 328.761719 L 623.597656 333.816406 C 623.539062 334.03125 623.660156 334.25 623.867188 334.324219 C 624.179688 334.429688 624.484375 334.542969 624.789062 334.664062 C 633.453125 338.171875 637.632812 348.035156 634.125 356.699219 L 631.476562 363.25 C 631.394531 363.445312 631.476562 363.671875 631.660156 363.773438 L 636.714844 366.582031 C 636.949219 366.714844 637.242188 366.59375 637.324219 366.339844 L 640.3125 356.605469 C 643.601562 345.902344 638.453125 334.421875 628.273438 329.757812 Z M 627.921875 330.523438 C 637.714844 335.011719 642.671875 346.058594 639.507812 356.355469 L 636.667969 365.59375 L 632.394531 363.21875 L 634.90625 357.015625 C 638.585938 347.921875 634.199219 337.566406 625.105469 333.882812 C 624.90625 333.804688 624.710938 333.726562 624.507812 333.65625 L 625.609375 329.460938 Z M 627.921875 330.523438 " fill-opacity="1" fill-rule="nonzero"/><path fill="#e55a19" d="M 664.054688 481.523438 C 656.699219 491.550781 652.015625 507.574219 649.976562 529.59375 L 650.816406 529.671875 C 652.871094 507.46875 657.621094 491.4375 665.054688 481.59375 C 671.128906 473.542969 677.652344 466.914062 684.367188 461.566406 C 689.296875 457.644531 693.910156 454.738281 697.949219 452.710938 L 697.570312 451.957031 C 693.480469 454.007812 688.820312 456.949219 683.84375 460.910156 C 677.140625 466.242188 670.632812 472.84375 664.566406 480.84375 L 636.277344 465.523438 C 636.074219 465.414062 635.816406 465.488281 635.707031 465.695312 C 635.597656 465.898438 635.671875 466.15625 635.875 466.265625 Z M 623.871094 473.558594 C 623.984375 473.355469 623.910156 473.101562 623.703125 472.988281 C 623.5 472.878906 623.246094 472.953125 623.132812 473.15625 L 598.082031 519.042969 C 597.96875 519.246094 598.046875 519.503906 598.25 519.613281 C 598.453125 519.726562 598.710938 519.652344 598.820312 519.445312 Z M 633.0625 454.195312 C 632.960938 454.40625 633.046875 454.65625 633.257812 454.761719 C 633.464844 454.863281 633.71875 454.777344 633.820312 454.566406 L 658.636719 404.027344 C 658.742188 403.816406 658.652344 403.5625 658.445312 403.460938 C 658.238281 403.359375 657.984375 403.445312 657.882812 403.652344 Z M 633.0625 454.195312 " fill-opacity="1" fill-rule="nonzero"/><path stroke-linecap="round" transform="matrix(-0.999703, 0, 0, 0.999703, 724.525986, 127.321275)" fill="none" stroke-linejoin="round" d="M 112.911076 246.267477 L 125.348363 271.544514 " stroke="#f56843" stroke-width="0.843" stroke-opacity="1" stroke-miterlimit="4"/><path stroke-linecap="round" transform="matrix(-0.999703, 0, 0, 0.999703, 724.525986, 127.321275)" fill="none" stroke-linejoin="round" d="M 151.0474 319.433734 L 173.296194 363.196729 " stroke="#f56843" stroke-width="0.843" stroke-opacity="1" stroke-miterlimit="4"/><g clip-path="url(#b848129e98)"><path fill="#e55a19" d="M 222.308594 246.472656 C 222.085938 246.410156 221.851562 246.542969 221.789062 246.765625 C 221.726562 246.988281 221.855469 247.222656 222.082031 247.285156 L 257.820312 257.351562 C 266.554688 259.8125 271.636719 268.886719 269.179688 277.617188 C 268.605469 279.652344 267.644531 281.558594 266.347656 283.230469 L 261.105469 289.988281 C 256.027344 296.539062 257.21875 305.972656 263.773438 311.050781 C 266.714844 313.332031 270.398438 314.441406 274.113281 314.15625 L 292.132812 312.785156 C 301.28125 312.085938 310.214844 315.796875 316.183594 322.765625 L 324.925781 332.976562 C 325.074219 333.152344 325.339844 333.175781 325.519531 333.023438 C 325.695312 332.871094 325.714844 332.605469 325.566406 332.429688 L 316.824219 322.21875 C 310.679688 315.042969 301.488281 311.226562 292.070312 311.945312 L 274.046875 313.316406 C 270.542969 313.582031 267.066406 312.539062 264.289062 310.386719 C 258.105469 305.589844 256.976562 296.6875 261.773438 290.503906 L 267.015625 283.746094 C 268.375 281.988281 269.386719 279.984375 269.988281 277.84375 C 272.574219 268.664062 267.230469 259.128906 258.050781 256.542969 Z M 284.25 368.460938 L 284.25 361.160156 C 284.25 360.851562 283.996094 360.597656 283.6875 360.597656 C 283.378906 360.597656 283.125 360.851562 283.125 361.160156 L 283.125 368.460938 L 275.824219 368.460938 C 275.515625 368.460938 275.261719 368.710938 275.261719 369.023438 C 275.261719 369.332031 275.515625 369.585938 275.824219 369.585938 L 283.125 369.585938 L 283.125 376.886719 C 283.125 377.195312 283.378906 377.445312 283.6875 377.445312 C 283.996094 377.445312 284.25 377.195312 284.25 376.886719 L 284.25 369.585938 L 291.550781 369.585938 C 291.859375 369.585938 292.113281 369.332031 292.113281 369.023438 C 292.113281 368.710938 291.859375 368.460938 291.550781 368.460938 Z M 547.066406 188.757812 L 547.066406 181.457031 C 547.066406 181.144531 546.816406 180.894531 546.507812 180.894531 C 546.195312 180.894531 545.945312 181.144531 545.945312 181.457031 L 545.945312 188.757812 L 538.644531 188.757812 C 538.332031 188.757812 538.082031 189.007812 538.082031 189.316406 C 538.082031 189.628906 538.332031 189.878906 538.644531 189.878906 L 545.945312 189.878906 L 545.945312 197.179688 C 545.945312 197.488281 546.195312 197.742188 546.507812 197.742188 C 546.816406 197.742188 547.066406 197.488281 547.066406 197.179688 L 547.066406 189.878906 L 554.367188 189.878906 C 554.679688 189.878906 554.929688 189.628906 554.929688 189.316406 C 554.929688 189.007812 554.679688 188.757812 554.367188 188.757812 Z M 308.957031 221.328125 L 308.957031 214.027344 C 308.957031 213.71875 308.707031 213.464844 308.398438 213.464844 C 308.085938 213.464844 307.835938 213.71875 307.835938 214.027344 L 307.835938 221.328125 L 300.535156 221.328125 C 300.226562 221.328125 299.972656 221.578125 299.972656 221.890625 C 299.972656 222.199219 300.226562 222.449219 300.535156 222.449219 L 307.835938 222.449219 L 307.835938 229.75 C 307.835938 230.0625 308.085938 230.3125 308.398438 230.3125 C 308.707031 230.3125 308.957031 230.0625 308.957031 229.75 L 308.957031 222.449219 L 316.257812 222.449219 C 316.570312 222.449219 316.820312 222.199219 316.820312 221.890625 C 316.820312 221.578125 316.570312 221.328125 316.257812 221.328125 Z M 718.347656 368.460938 L 718.347656 362.84375 C 718.347656 362.535156 718.097656 362.285156 717.785156 362.285156 C 717.476562 362.285156 717.226562 362.535156 717.226562 362.84375 L 717.226562 368.460938 L 711.609375 368.460938 C 711.300781 368.460938 711.046875 368.710938 711.046875 369.023438 C 711.046875 369.332031 711.300781 369.585938 711.609375 369.585938 L 717.226562 369.585938 L 717.226562 375.199219 C 717.226562 375.511719 717.476562 375.761719 717.785156 375.761719 C 718.097656 375.761719 718.347656 375.511719 718.347656 375.199219 L 718.347656 369.585938 L 723.964844 369.585938 C 724.273438 369.585938 724.527344 369.332031 724.527344 369.023438 C 724.527344 368.710938 724.273438 368.460938 723.964844 368.460938 Z M 373.820312 287.03125 L 373.820312 281.699219 C 373.820312 281.386719 373.570312 281.136719 373.257812 281.136719 C 372.949219 281.136719 372.699219 281.386719 372.699219 281.699219 L 372.699219 287.03125 L 367.363281 287.03125 C 367.050781 287.03125 366.800781 287.285156 366.800781 287.59375 C 366.800781 287.902344 367.050781 288.15625 367.363281 288.15625 L 372.699219 288.15625 L 372.699219 293.492188 C 372.699219 293.800781 372.949219 294.050781 373.257812 294.050781 C 373.570312 294.050781 373.820312 293.800781 373.820312 293.492188 L 373.820312 288.15625 L 379.15625 288.15625 C 379.464844 288.15625 379.71875 287.902344 379.71875 287.59375 C 379.71875 287.285156 379.464844 287.03125 379.15625 287.03125 Z M 516.460938 270.464844 L 516.460938 265.128906 C 516.460938 264.820312 516.210938 264.570312 515.898438 264.570312 C 515.589844 264.570312 515.339844 264.820312 515.339844 265.128906 L 515.339844 270.464844 L 510.003906 270.464844 C 509.691406 270.464844 509.441406 270.714844 509.441406 271.027344 C 509.441406 271.335938 509.691406 271.589844 510.003906 271.589844 L 515.339844 271.589844 L 515.339844 276.925781 C 515.339844 277.234375 515.589844 277.484375 515.898438 277.484375 C 516.210938 277.484375 516.460938 277.234375 516.460938 276.925781 L 516.460938 271.589844 L 521.796875 271.589844 C 522.105469 271.589844 522.359375 271.335938 522.359375 271.027344 C 522.359375 270.714844 522.105469 270.464844 521.796875 270.464844 Z M 516.460938 270.464844 " fill-opacity="1" fill-rule="nonzero"/></g><path fill="#ffd1d1" d="M 571.683594 392.878906 C 574.410156 390.925781 576.640625 390.433594 578.378906 391.414062 C 580.980469 392.878906 584.328125 395.8125 582.46875 399.476562 C 580.609375 403.144531 579.121094 406.078125 577.261719 406.078125 C 575.402344 406.078125 572.054688 406.445312 570.195312 402.410156 C 568.957031 399.722656 569.449219 396.546875 571.683594 392.878906 Z M 571.683594 392.878906 " fill-opacity="1" fill-rule="evenodd"/><path fill="#ffffff" d="M 571.835938 394.566406 C 572.027344 396.554688 572.691406 397.835938 573.820312 398.410156 C 574.8125 398.914062 576.359375 399.203125 578.46875 399.289062 C 579.398438 399.324219 580.179688 398.601562 580.21875 397.671875 C 580.230469 397.351562 580.152344 397.035156 579.992188 396.761719 C 578.832031 394.757812 577.804688 393.527344 576.910156 393.074219 C 575.96875 392.597656 574.746094 392.488281 573.230469 392.742188 C 572.359375 392.890625 571.75 393.683594 571.835938 394.566406 Z M 571.835938 394.566406 " fill-opacity="1" fill-rule="evenodd"/><path fill="#e55a19" d="M 572.535156 395.230469 C 572.816406 395.675781 573.375 395.976562 574.023438 395.976562 C 574.953125 395.976562 575.707031 395.351562 575.707031 394.574219 C 575.707031 393.816406 574.988281 393.199219 574.089844 393.171875 C 575.25 393.046875 576.191406 393.175781 576.921875 393.546875 C 577.722656 393.953125 578.707031 395.128906 579.828125 397.066406 C 579.949219 397.273438 580.007812 397.511719 579.996094 397.75 C 579.96875 398.445312 579.382812 398.988281 578.683594 398.960938 C 576.632812 398.882812 575.136719 398.597656 574.214844 398.128906 C 573.34375 397.6875 572.777344 396.734375 572.535156 395.230469 Z M 573.324219 393.296875 C 573.183594 393.339844 573.058594 393.410156 572.945312 393.496094 C 573.058594 393.417969 573.1875 393.347656 573.324219 393.296875 Z M 571.617188 394.703125 C 571.824219 396.820312 572.550781 398.230469 573.832031 398.878906 C 574.886719 399.417969 576.488281 399.71875 578.652344 399.804688 C 579.816406 399.847656 580.792969 398.945312 580.839844 397.78125 C 580.855469 397.382812 580.757812 396.988281 580.558594 396.644531 C 579.359375 394.578125 578.289062 393.296875 577.300781 392.792969 C 576.273438 392.273438 574.957031 392.152344 573.363281 392.421875 C 572.273438 392.605469 571.511719 393.601562 571.617188 394.703125 Z M 571.617188 394.703125 " fill-opacity="1" fill-rule="nonzero"/><path fill="#ffd1d1" d="M 554.085938 383.769531 C 555.402344 383.441406 556.789062 383.667969 558.246094 384.445312 C 558.519531 384.59375 558.621094 384.933594 558.476562 385.207031 C 558.445312 385.265625 558.40625 385.316406 558.355469 385.359375 C 557.796875 385.859375 557.125 386.140625 556.332031 386.210938 C 555.285156 386.300781 554.070312 386.300781 552.683594 386.210938 C 552.121094 384.957031 552.589844 384.144531 554.085938 383.769531 Z M 554.085938 383.769531 " fill-opacity="1" fill-rule="evenodd"/><path fill="#e55a19" d="M 553.703125 383.300781 C 555.125 382.945312 556.617188 383.1875 558.164062 384.015625 C 558.640625 384.273438 558.820312 384.867188 558.566406 385.347656 C 558.511719 385.449219 558.441406 385.539062 558.355469 385.613281 C 557.730469 386.175781 556.96875 386.496094 556.089844 386.570312 C 555.015625 386.664062 553.78125 386.664062 552.375 386.570312 C 552.21875 386.5625 552.082031 386.464844 552.019531 386.324219 C 551.34375 384.816406 551.964844 383.734375 553.703125 383.300781 Z M 556.015625 385.730469 C 556.71875 385.671875 557.304688 385.421875 557.792969 384.988281 C 557.804688 384.976562 557.816406 384.964844 557.824219 384.949219 C 557.859375 384.878906 557.835938 384.796875 557.765625 384.757812 C 556.394531 384.023438 555.117188 383.816406 553.910156 384.117188 C 552.753906 384.40625 552.394531 384.894531 552.695312 385.746094 C 553.949219 385.820312 555.058594 385.8125 556.015625 385.730469 Z M 556.015625 385.730469 " fill-opacity="1" fill-rule="nonzero"/><path fill="#ffffff" d="M 205.066406 221.328125 L 210.683594 222.730469 L 196.363281 236.769531 L 194.675781 231.15625 " fill-opacity="1" fill-rule="evenodd"/><path fill="#ffffff" d="M 420.429688 507.171875 C 418.105469 507.171875 416.21875 505.285156 416.21875 502.957031 C 416.21875 500.632812 418.105469 498.746094 420.429688 498.746094 C 422.757812 498.746094 424.644531 500.632812 424.644531 502.957031 C 424.644531 505.285156 422.757812 507.171875 420.429688 507.171875 Z M 420.429688 507.171875 " fill-opacity="1" fill-rule="nonzero"/><path fill="#e55a19" d="M 420.632812 507.59375 C 418.074219 507.59375 416 505.519531 416 502.957031 C 416 500.402344 418.074219 498.324219 420.632812 498.324219 C 423.191406 498.324219 425.265625 500.402344 425.265625 502.957031 C 425.265625 505.519531 423.191406 507.59375 420.632812 507.59375 Z M 420.632812 506.75 C 422.726562 506.75 424.425781 505.050781 424.425781 502.957031 C 424.425781 500.867188 422.726562 499.167969 420.632812 499.167969 C 418.539062 499.167969 416.84375 500.867188 416.84375 502.957031 C 416.84375 505.050781 418.539062 506.75 420.632812 506.75 Z M 420.632812 506.75 " fill-opacity="1" fill-rule="nonzero"/><path fill="#ffffff" d="M 356.972656 440.34375 C 354.648438 440.34375 352.761719 438.457031 352.761719 436.132812 C 352.761719 433.804688 354.648438 431.917969 356.972656 431.917969 C 359.300781 431.917969 361.183594 433.804688 361.183594 436.132812 C 361.183594 438.457031 359.300781 440.34375 356.972656 440.34375 Z M 356.972656 440.34375 " fill-opacity="1" fill-rule="nonzero"/><path fill="#e55a19" d="M 356.972656 440.765625 C 354.414062 440.765625 352.339844 438.691406 352.339844 436.128906 C 352.339844 433.574219 354.414062 431.496094 356.972656 431.496094 C 359.53125 431.496094 361.605469 433.574219 361.605469 436.128906 C 361.605469 438.691406 359.53125 440.765625 356.972656 440.765625 Z M 356.972656 439.921875 C 359.066406 439.921875 360.765625 438.226562 360.765625 436.128906 C 360.765625 434.039062 359.066406 432.339844 356.972656 432.339844 C 354.878906 432.339844 353.183594 434.039062 353.183594 436.128906 C 353.183594 438.226562 354.878906 439.921875 356.972656 439.921875 Z M 356.972656 439.921875 " fill-opacity="1" fill-rule="nonzero"/><path fill="#e55a19" d="M 420.632812 505.347656 C 419.171875 505.347656 417.964844 504.289062 417.964844 502.957031 C 417.964844 501.628906 419.171875 500.574219 420.632812 500.574219 C 422.09375 500.574219 423.300781 501.628906 423.300781 502.957031 C 423.300781 504.289062 422.09375 505.347656 420.632812 505.347656 Z M 420.632812 504.503906 C 421.652344 504.503906 422.457031 503.796875 422.457031 502.957031 C 422.457031 502.121094 421.652344 501.414062 420.632812 501.414062 C 419.613281 501.414062 418.808594 502.121094 418.808594 502.957031 C 418.808594 503.796875 419.613281 504.503906 420.632812 504.503906 Z M 420.632812 504.503906 " fill-opacity="1" fill-rule="nonzero"/><path fill="#e55a19" d="M 356.972656 438.519531 C 355.511719 438.519531 354.304688 437.464844 354.304688 436.132812 C 354.304688 434.800781 355.511719 433.746094 356.972656 433.746094 C 358.433594 433.746094 359.640625 434.800781 359.640625 436.132812 C 359.640625 437.464844 358.433594 438.519531 356.972656 438.519531 Z M 356.972656 437.675781 C 357.992188 437.675781 358.796875 436.96875 358.796875 436.132812 C 358.796875 435.292969 357.992188 434.585938 356.972656 434.585938 C 355.953125 434.585938 355.148438 435.292969 355.148438 436.132812 C 355.148438 436.96875 355.953125 437.675781 356.972656 437.675781 Z M 356.972656 437.675781 " fill-opacity="1" fill-rule="nonzero"/><path fill="#e55a19" d="M 604.273438 328.621094 C 599.859375 332.648438 590.226562 334.441406 575.335938 334.0625 C 560.476562 333.6875 549.925781 331.425781 543.664062 327.253906 C 543.472656 327.125 543.417969 326.863281 543.546875 326.671875 C 543.675781 326.476562 543.941406 326.425781 544.132812 326.554688 C 550.230469 330.617188 560.644531 332.847656 575.359375 333.222656 C 590.042969 333.59375 599.503906 331.832031 603.703125 327.996094 C 603.875 327.839844 604.144531 327.851562 604.296875 328.023438 C 604.457031 328.195312 604.445312 328.460938 604.273438 328.621094 Z M 604.273438 328.621094 " fill-opacity="1" fill-rule="nonzero"/><path fill="#ffd1d1" d="M 118.992188 138.832031 C 132.9375 143.628906 147.15625 152.140625 161.640625 164.367188 C 176.582031 176.980469 192.699219 194.292969 209.988281 216.308594 L 190.558594 235.074219 C 169.027344 216.785156 152.289062 200.074219 140.335938 184.941406 C 128.746094 170.265625 120.671875 155.824219 116.113281 141.621094 C 115.855469 140.8125 116.078125 139.929688 116.6875 139.34375 C 117.296875 138.753906 118.1875 138.554688 118.992188 138.832031 Z M 118.992188 138.832031 " fill-opacity="1" fill-rule="evenodd"/><path fill="#ffafaf" d="M 141.046875 149.445312 L 126.164062 163.203125 C 118.117188 148.601562 114.933594 140.554688 116.617188 139.054688 C 118.304688 137.558594 126.445312 141.023438 141.046875 149.445312 Z M 141.046875 149.445312 " fill-opacity="1" fill-rule="evenodd"/><path fill="#e55a19" d="M 198.742188 234.746094 L 207.59375 245.476562 L 206.75 237.332031 L 213.769531 239.015625 L 210.964844 232.839844 L 219.105469 232.839844 L 208.902344 224.785156 L 211.515625 222.226562 L 205.167969 220.636719 L 204.964844 221.457031 L 209.851562 222.675781 L 196.566406 235.699219 L 195.082031 230.753906 L 194.273438 230.996094 L 196.160156 237.28125 Z M 198.742188 234.746094 " fill-opacity="1" fill-rule="evenodd"/><path fill="#e55a19" d="M 161.921875 163.859375 C 176.886719 176.488281 193.023438 193.824219 210.328125 215.859375 C 210.460938 216.027344 210.445312 216.273438 210.289062 216.421875 L 190.859375 235.1875 C 190.703125 235.339844 190.457031 235.347656 190.292969 235.207031 C 168.746094 216.898438 151.984375 200.171875 140.015625 185.011719 C 128.394531 170.300781 120.292969 155.816406 115.722656 141.558594 C 115.414062 140.601562 115.679688 139.550781 116.402344 138.851562 C 117.128906 138.152344 118.183594 137.917969 119.136719 138.242188 C 133.136719 143.0625 147.398438 151.601562 161.921875 163.859375 Z M 209.433594 216.078125 C 192.246094 194.226562 176.226562 177.035156 161.378906 164.5 C 146.929688 152.308594 132.757812 143.820312 118.863281 139.039062 C 118.210938 138.816406 117.484375 138.976562 116.988281 139.457031 C 116.496094 139.933594 116.316406 140.648438 116.523438 141.300781 C 121.0625 155.457031 129.113281 169.851562 140.675781 184.492188 C 152.554688 199.53125 169.179688 216.140625 190.546875 234.316406 Z M 209.433594 216.078125 " fill-opacity="1" fill-rule="nonzero"/><path fill="#ffffff" d="M 181.09375 186.511719 L 183.597656 190.96875 L 209.703125 216.136719 L 229.242188 217.300781 L 230.898438 215.699219 Z M 161.382812 205.382812 L 189.699219 255.691406 L 191.328125 254.0625 L 190.507812 234.507812 L 165.796875 207.964844 Z M 161.382812 205.382812 " fill-opacity="1" fill-rule="evenodd"/><path fill="#e55a19" d="M 181.578125 186.347656 C 181.207031 186.128906 180.789062 186.542969 181 186.917969 L 183.503906 191.375 L 183.578125 191.472656 L 209.683594 216.640625 C 209.757812 216.710938 209.851562 216.753906 209.953125 216.757812 L 229.492188 217.921875 C 229.609375 217.925781 229.722656 217.886719 229.808594 217.804688 L 231.464844 216.203125 C 231.667969 216.007812 231.625 215.675781 231.386719 215.535156 Z M 230.480469 215.980469 L 229.355469 217.070312 L 210.15625 215.925781 L 184.207031 190.910156 L 182.496094 187.859375 Z M 184.164062 190.867188 L 184.238281 190.964844 L 184.207031 190.910156 Z M 161.867188 205.21875 C 161.5 205 161.078125 205.414062 161.289062 205.789062 L 189.605469 256.097656 C 189.742188 256.339844 190.074219 256.386719 190.269531 256.1875 L 191.898438 254.558594 C 191.984375 254.476562 192.027344 254.363281 192.023438 254.246094 L 191.203125 234.6875 C 191.199219 234.589844 191.15625 234.492188 191.089844 234.417969 L 166.378906 207.878906 L 166.285156 207.800781 Z M 165.804688 208.496094 L 190.367188 234.878906 L 191.171875 254.09375 L 190.066406 255.199219 L 162.785156 206.730469 Z M 165.804688 208.496094 " fill-opacity="1" fill-rule="nonzero"/><path fill="#ffffff" d="M 149.472656 182.015625 C 144.816406 182.015625 141.046875 178.246094 141.046875 173.59375 C 141.046875 168.941406 144.816406 165.171875 149.472656 165.171875 C 154.121094 165.171875 157.894531 168.941406 157.894531 173.59375 C 157.894531 178.246094 154.121094 182.015625 149.472656 182.015625 Z M 149.472656 182.015625 " fill-opacity="1" fill-rule="nonzero"/><path fill="#e55a19" d="M 149.355469 182.242188 C 144.472656 182.242188 140.511719 178.28125 140.511719 173.398438 C 140.511719 168.511719 144.472656 164.550781 149.355469 164.550781 C 154.242188 164.550781 158.203125 168.511719 158.203125 173.398438 C 158.203125 178.28125 154.242188 182.242188 149.355469 182.242188 Z M 149.355469 181.398438 C 153.777344 181.398438 157.359375 177.816406 157.359375 173.398438 C 157.359375 168.976562 153.777344 165.394531 149.355469 165.394531 C 144.9375 165.394531 141.355469 168.976562 141.355469 173.398438 C 141.355469 177.816406 144.9375 181.398438 149.355469 181.398438 Z M 149.355469 181.398438 " fill-opacity="1" fill-rule="nonzero"/><path fill="#e55a19" d="M 149.472656 177.945312 C 151.875 177.945312 153.824219 175.996094 153.824219 173.59375 C 153.824219 171.191406 151.875 169.242188 149.472656 169.242188 C 147.066406 169.242188 145.117188 171.191406 145.117188 173.59375 C 145.117188 175.996094 147.066406 177.945312 149.472656 177.945312 Z M 149.472656 177.101562 C 147.53125 177.101562 145.960938 175.53125 145.960938 173.59375 C 145.960938 171.65625 147.53125 170.082031 149.472656 170.082031 C 151.410156 170.082031 152.980469 171.65625 152.980469 173.59375 C 152.980469 175.53125 151.410156 177.101562 149.472656 177.101562 Z M 141.335938 149.472656 L 140.757812 148.855469 L 125.746094 162.898438 L 126.324219 163.511719 Z M 141.335938 149.472656 " fill-opacity="1" fill-rule="nonzero"/><path fill="#e55a19" d="M 435.539062 327.953125 C 447.148438 335.261719 455.148438 342.222656 459.53125 348.855469 C 463.914062 355.476562 467.859375 366.65625 471.382812 382.410156 L 470.5625 382.59375 C 467.058594 366.933594 463.140625 355.839844 458.828125 349.320312 C 454.519531 342.804688 446.609375 335.917969 435.089844 328.664062 Z M 435.539062 327.953125 " fill-opacity="1" fill-rule="nonzero"/><path fill="#ffffff" d="M 598.234375 423.242188 C 593.703125 424.851562 589.515625 426.074219 585.667969 426.914062 C 581.902344 427.730469 577.476562 428.4375 572.390625 429.035156 C 571.3125 429.160156 570.539062 430.136719 570.667969 431.214844 C 570.675781 431.300781 570.691406 431.382812 570.710938 431.464844 L 570.765625 431.683594 C 571.046875 432.800781 572.125 433.527344 573.261719 433.363281 C 577.988281 432.691406 582.40625 431.945312 586.511719 431.125 C 590.671875 430.292969 594.875 428.855469 599.117188 426.8125 C 600.039062 426.367188 600.527344 425.332031 600.277344 424.339844 C 600.066406 423.5 599.214844 422.988281 598.378906 423.199219 C 598.328125 423.210938 598.28125 423.226562 598.234375 423.242188 Z M 598.234375 423.242188 " fill-opacity="1" fill-rule="evenodd"/><path fill="#e55a19" d="M 581.589844 428.492188 C 583.03125 428.238281 584.394531 427.972656 585.679688 427.691406 C 587.25 427.351562 588.882812 426.910156 590.582031 426.371094 L 591.191406 429 C 589.488281 429.507812 587.820312 429.925781 586.179688 430.253906 C 584.875 430.515625 583.539062 430.769531 582.171875 431.015625 Z M 580.757812 428.636719 L 581.34375 431.160156 C 578.671875 431.632812 575.886719 432.074219 572.976562 432.488281 C 572.265625 432.585938 571.59375 432.132812 571.417969 431.4375 L 571.363281 431.214844 C 571.351562 431.167969 571.34375 431.121094 571.335938 431.074219 C 571.265625 430.457031 571.707031 429.902344 572.320312 429.828125 C 575.371094 429.46875 578.179688 429.074219 580.757812 428.636719 Z M 591.386719 426.109375 C 593.578125 425.382812 595.875 424.496094 598.277344 423.453125 C 598.332031 423.429688 598.382812 423.410156 598.441406 423.394531 C 598.996094 423.257812 599.558594 423.59375 599.699219 424.152344 L 599.785156 424.507812 C 599.953125 425.171875 599.613281 425.859375 598.980469 426.132812 C 596.601562 427.167969 594.273438 428.039062 591.996094 428.753906 Z M 597.941406 422.679688 C 593.402344 424.65625 589.253906 426.054688 585.5 426.871094 C 581.734375 427.6875 577.308594 428.394531 572.222656 428.992188 C 571.148438 429.117188 570.375 430.09375 570.5 431.171875 C 570.511719 431.257812 570.527344 431.339844 570.546875 431.421875 L 570.601562 431.640625 C 570.878906 432.757812 571.957031 433.480469 573.097656 433.320312 C 577.824219 432.648438 582.238281 431.902344 586.34375 431.082031 C 590.492188 430.25 594.816406 428.859375 599.316406 426.90625 C 600.324219 426.46875 600.867188 425.367188 600.605469 424.300781 L 600.515625 423.945312 C 600.265625 422.941406 599.246094 422.328125 598.238281 422.578125 C 598.136719 422.605469 598.035156 422.636719 597.941406 422.679688 Z M 597.941406 422.679688 " fill-opacity="1" fill-rule="nonzero"/><path fill="#ffd1d1" d="M 648.152344 377.164062 L 644.21875 375.480469 L 640.289062 383.625 L 644.21875 386.152344 Z M 634.953125 380.253906 C 636.003906 380.253906 637.058594 380.082031 637.761719 379.410156 C 638.515625 378.695312 638.886719 377.445312 638.886719 376.324219 C 638.886719 375.425781 638.550781 374.175781 638.042969 373.515625 C 637.324219 372.578125 636.226562 372.390625 634.953125 372.390625 C 633.820312 372.390625 632.863281 372.46875 632.148438 373.234375 C 631.488281 373.9375 631.023438 375.285156 631.023438 376.324219 C 631.023438 377.617188 631.460938 378.976562 632.425781 379.691406 C 633.082031 380.175781 634.078125 380.253906 634.953125 380.253906 Z M 634.953125 380.253906 " fill-opacity="1" fill-rule="evenodd"/><path fill="#e55a19" d="M 648.425781 376.945312 L 643.734375 374.933594 L 639.46875 383.777344 L 644.128906 386.773438 Z M 643.75 385.53125 L 640.550781 383.472656 L 644.144531 376.027344 L 647.316406 377.386719 Z M 634.671875 380.675781 C 636.019531 380.675781 637.046875 380.40625 637.769531 379.71875 C 638.574219 378.957031 639.027344 377.640625 639.027344 376.324219 C 639.027344 375.292969 638.644531 373.972656 638.097656 373.257812 C 637.359375 372.296875 636.316406 371.96875 634.671875 371.96875 C 633.109375 371.96875 632.28125 372.171875 631.558594 372.945312 C 630.839844 373.71875 630.320312 375.160156 630.320312 376.324219 C 630.320312 377.859375 630.871094 379.273438 631.894531 380.03125 C 632.550781 380.515625 633.429688 380.675781 634.671875 380.675781 Z M 634.671875 379.832031 C 633.597656 379.832031 632.863281 379.699219 632.398438 379.355469 C 631.617188 378.777344 631.164062 377.613281 631.164062 376.324219 C 631.164062 375.363281 631.605469 374.128906 632.171875 373.523438 C 632.691406 372.96875 633.324219 372.8125 634.671875 372.8125 C 636.082031 372.8125 636.886719 373.066406 637.429688 373.769531 C 637.851562 374.324219 638.183594 375.464844 638.183594 376.324219 C 638.183594 377.429688 637.808594 378.523438 637.191406 379.105469 C 636.65625 379.613281 635.824219 379.832031 634.671875 379.832031 Z M 634.671875 379.832031 " fill-opacity="1" fill-rule="nonzero"/><path fill="#ffffff" d="M 428.011719 258.953125 L 476.871094 258.953125 C 477.800781 258.953125 478.554688 259.707031 478.554688 260.636719 C 478.554688 261.570312 477.800781 262.324219 476.871094 262.324219 L 428.011719 262.324219 C 427.082031 262.324219 426.328125 261.570312 426.328125 260.636719 C 426.328125 259.707031 427.082031 258.953125 428.011719 258.953125 Z M 428.011719 258.953125 " fill-opacity="1" fill-rule="nonzero"/><path fill="#e55a19" d="M 476.871094 258.953125 L 428.011719 258.953125 C 427.082031 258.953125 426.328125 259.707031 426.328125 260.636719 C 426.328125 261.570312 427.082031 262.324219 428.011719 262.324219 L 476.871094 262.324219 C 477.800781 262.324219 478.554688 261.570312 478.554688 260.636719 C 478.554688 259.707031 477.800781 258.953125 476.871094 258.953125 Z M 476.871094 259.796875 C 477.335938 259.796875 477.710938 260.171875 477.710938 260.636719 C 477.710938 261.105469 477.335938 261.480469 476.871094 261.480469 L 428.011719 261.480469 C 427.546875 261.480469 427.171875 261.105469 427.171875 260.636719 C 427.171875 260.171875 427.546875 259.796875 428.011719 259.796875 Z M 476.871094 259.796875 " fill-opacity="1" fill-rule="nonzero"/><path stroke-linecap="butt" transform="matrix(-0.999703, 0, 0, 0.999703, 724.525986, 127.321275)" fill-opacity="1" fill="#ffffff" fill-rule="nonzero" stroke-linejoin="miter" d="M 174.284769 362.399617 L 152.094586 318.855437 C 151.778086 318.234159 151.016141 317.984085 150.394862 318.304492 C 149.773584 318.620993 149.527417 319.382938 149.843918 320.004216 L 172.030193 363.548396 C 172.346693 364.169674 173.108638 364.415841 173.729916 364.099341 C 174.351195 363.78284 174.601269 363.020895 174.284769 362.399617 Z M 174.284769 362.399617 " stroke="#f56843" stroke-width="0.843" stroke-opacity="1" stroke-miterlimit="4"/><path fill="#ffffff" d="M 563.851562 377.617188 C 565.449219 378.976562 572.949219 373.21875 574.550781 372.539062 C 575.414062 372.175781 575.816406 371.179688 575.453125 370.316406 C 575.117188 369.527344 574.246094 369.113281 573.421875 369.351562 C 568.496094 370.773438 565.71875 371.804688 565.089844 372.445312 C 563.496094 374.066406 562.25 376.261719 563.851562 377.617188 Z M 563.851562 377.617188 " fill-opacity="1" fill-rule="evenodd"/><path fill="#ffffff" d="M 526.105469 415.902344 L 509.332031 405.277344 C 509.070312 405.109375 508.722656 405.1875 508.558594 405.449219 C 508.554688 405.457031 508.550781 405.464844 508.546875 405.46875 L 502.128906 416.574219 C 501.976562 416.835938 502.058594 417.164062 502.308594 417.328125 L 518.78125 427.957031 C 519.042969 428.125 519.390625 428.050781 519.558594 427.789062 C 519.5625 427.785156 519.566406 427.777344 519.570312 427.773438 L 526.285156 416.664062 C 526.445312 416.40625 526.363281 416.066406 526.105469 415.902344 Z M 526.105469 415.902344 " fill-opacity="1" fill-rule="evenodd"/><path fill="#e55a19" d="M 526.894531 416.070312 L 509.273438 405.058594 C 509.011719 404.894531 508.664062 404.976562 508.5 405.238281 L 501.355469 416.667969 C 501.191406 416.929688 501.273438 417.277344 501.535156 417.441406 L 519.15625 428.453125 C 519.417969 428.617188 519.765625 428.539062 519.929688 428.273438 L 527.074219 416.84375 C 527.238281 416.582031 527.15625 416.234375 526.894531 416.070312 Z M 526.210938 416.636719 L 519.363281 427.589844 L 502.222656 416.878906 L 509.066406 405.921875 Z M 526.210938 416.636719 " fill-opacity="1" fill-rule="nonzero"/><path fill="#e55a19" d="M 522.648438 416.242188 L 511.21875 409.101562 C 510.957031 408.9375 510.609375 409.015625 510.445312 409.28125 L 505.683594 416.898438 C 505.519531 417.164062 505.601562 417.507812 505.863281 417.671875 L 517.292969 424.816406 C 517.554688 424.980469 517.902344 424.898438 518.066406 424.636719 L 522.828125 417.015625 C 522.992188 416.753906 522.914062 416.40625 522.648438 416.242188 Z M 517.5 423.953125 L 506.546875 417.105469 L 511.011719 409.964844 L 521.964844 416.808594 Z M 517.5 423.953125 " fill-opacity="1" fill-rule="nonzero"/></svg>