<?xml version="1.0" encoding="utf-8"?>
<!-- Generator: Adobe Illustrator 28.1.0, SVG Export Plug-In . SVG Version: 6.00 Build 0)  -->
<svg version="1.1" id="Layer_1" xmlns="http://www.w3.org/2000/svg" xmlns:xlink="http://www.w3.org/1999/xlink" x="0px" y="0px"
	 viewBox="0 0 1000 68" style="enable-background:new 0 0 1000 68;" xml:space="preserve">
<style type="text/css">
	.st0{fill:#FFFFFF;}
</style>
<g>
	<g>
		<g>
			<g>
				<g>
					<path class="st0" d="M623.92,50.53c1.4,0,2.61,0.51,3.66,1.55c1.03,1.03,1.55,2.27,1.55,3.72c0,1.4-0.52,2.65-1.55,3.74
						c-1.05,1.09-2.25,1.65-3.66,1.65c-1.39,0-2.63-0.56-3.69-1.65c-1.06-1.09-1.6-2.33-1.6-3.74c0-1.45,0.54-2.69,1.6-3.72
						C621.3,51.04,622.54,50.53,623.92,50.53z"/>
					<g>
						<path class="st0" d="M647.28,42.39l-3.38,0l0-19.87c0-2.2-0.52-3.84-1.55-4.93c-1.03-1.09-2.86-1.76-5.47-2.01
							c-3.51,0-5.83,0.77-7.08,2.24c0.3,1.33,0.51,2.72,0.51,4.24v13.21c0,4.75-2.4,7.12-7.2,7.12l-3.38,0l0-19.87
							c0-2.2-0.52-3.84-1.55-4.93c-1.03-1.09-2.86-1.76-5.47-2.01c-3.77,0-6.22,0.85-7.38,2.55c0.42,2.19,0.64,5.42,0.64,9.67v7.48
							c0,4.75-2.37,7.12-7.12,7.12l-3.28,0V22.52c0-4.2-1.98-6.52-5.91-6.94l-73.92,0c-3.46,0.38-5.37,2.11-5.73,5.19l0,35.46
							c0,1.52-0.62,2.79-1.83,3.79c-1.22,1.01-2.55,1.5-4.02,1.5l-4.73,0l0-39.56c0-4.51,1.34-8.16,4.02-10.99
							c2.66-2.82,6.53-4.33,11.58-4.51l74.64,0v0.1c4.59,0.23,8.16,1.13,10.56,2.81c0.24,0.24,0.42,0.41,0.55,0.46
							c3.04-2.24,7.41-3.36,13.13-3.36l0.82,0c4.3,0.15,7.68,1.34,10.26,3.44l-0.04-0.08c3.04-2.24,7.41-3.36,13.13-3.36l0.82,0
							c5.05,0.18,8.9,1.7,11.58,4.56c2.68,2.86,4.02,6.53,4.02,11.04v13.21C654.48,40.03,652.08,42.39,647.28,42.39z"/>
					</g>
					<path class="st0" d="M645.22,59.55c-1.06-1.09-1.6-2.33-1.6-3.74c0-1.45,0.52-2.69,1.55-3.72c1.03-1.05,2.25-1.55,3.64-1.55
						c1.47,0,2.73,0.51,3.79,1.55c1.06,1.03,1.6,2.27,1.6,3.72c0,1.4-0.56,2.65-1.65,3.74c-1.09,1.09-2.33,1.65-3.74,1.65
						C647.49,61.2,646.28,60.64,645.22,59.55z"/>
					<g>
						<path class="st0" d="M599.85,61.2c-1.39,0-2.63-0.56-3.69-1.65c-1.06-1.09-1.6-2.33-1.6-3.74c0-1.45,0.54-2.69,1.6-3.72
							c1.06-1.05,2.3-1.55,3.69-1.55c1.4,0,2.61,0.51,3.66,1.55c1.03,1.03,1.55,2.27,1.55,3.72c0,1.4-0.52,2.65-1.55,3.74
							C602.46,60.64,601.25,61.2,599.85,61.2z"/>
					</g>
				</g>
			</g>
		</g>
		<g>
			<g>
				<g>
					<g>
						<path class="st0" d="M459.45,17.47c1.4,0,2.61-0.51,3.66-1.55c1.03-1.03,1.55-2.27,1.55-3.72c0-1.4-0.52-2.65-1.55-3.74
							c-1.05-1.09-2.25-1.65-3.66-1.65c-1.39,0-2.63,0.56-3.69,1.65c-1.06,1.09-1.6,2.33-1.6,3.74c0,1.45,0.54,2.69,1.6,3.72
							C456.82,16.96,458.06,17.47,459.45,17.47z"/>
						<path class="st0" d="M482.8,25.61l-3.38,0l0,19.87c0,2.2-0.52,3.84-1.55,4.93c-1.03,1.09-2.86,1.76-5.47,2.01
							c-3.51,0-5.83-0.77-7.08-2.24c0.3-1.33,0.51-2.72,0.51-4.24l0-13.21c0-4.75-2.4-7.12-7.2-7.12l-3.38,0l0,19.87
							c0,2.2-0.52,3.84-1.55,4.93c-1.03,1.09-2.86,1.76-5.47,2.01c-3.77,0-6.22-0.85-7.38-2.55c0.42-2.19,0.64-5.42,0.64-9.67
							l0-7.48c0-4.75-2.37-7.12-7.12-7.12l-3.28,0l0,19.87c0,4.2-1.98,6.52-5.91,6.94l-73.92,0c-3.46-0.38-5.37-2.11-5.73-5.19
							l0-35.46c0-1.52-0.62-2.79-1.83-3.79c-1.22-1.01-2.55-1.5-4.02-1.5l-4.73,0l0,39.56c0,4.51,1.34,8.16,4.02,10.99
							c2.66,2.82,6.53,4.33,11.58,4.51l74.64,0v-0.1c4.59-0.23,8.16-1.13,10.56-2.81c0.24-0.24,0.42-0.41,0.55-0.46
							c3.04,2.24,7.41,3.36,13.13,3.36h0.82c4.3-0.15,7.68-1.34,10.26-3.44l-0.04,0.08c3.04,2.24,7.41,3.36,13.13,3.36h0.82
							c5.05-0.18,8.9-1.7,11.58-4.56c2.68-2.86,4.02-6.53,4.02-11.04V32.73C490,27.97,487.6,25.61,482.8,25.61z"/>
						<path class="st0" d="M480.74,8.45c-1.06,1.09-1.6,2.33-1.6,3.74c0,1.45,0.52,2.69,1.55,3.72c1.03,1.05,2.25,1.55,3.64,1.55
							c1.47,0,2.73-0.51,3.79-1.55c1.06-1.03,1.6-2.27,1.6-3.72c0-1.4-0.56-2.65-1.65-3.74c-1.09-1.09-2.33-1.65-3.74-1.65
							C483.01,6.8,481.8,7.36,480.74,8.45z"/>
						<path class="st0" d="M435.37,6.8c-1.39,0-2.63,0.56-3.69,1.65c-1.06,1.09-1.6,2.33-1.6,3.74c0,1.45,0.54,2.69,1.6,3.72
							c1.06,1.05,2.3,1.55,3.69,1.55c1.4,0,2.61-0.51,3.66-1.55c1.03-1.03,1.55-2.27,1.55-3.72c0-1.4-0.52-2.65-1.55-3.74
							C437.98,7.36,436.77,6.8,435.37,6.8z"/>
					</g>
				</g>
			</g>
		</g>
		<g>
			<g>
				<g>
					<g>
						<path class="st0" d="M201.03,17.47c-1.4,0-2.61-0.51-3.66-1.55c-1.03-1.03-1.55-2.27-1.55-3.72c0-1.4,0.52-2.65,1.55-3.74
							c1.05-1.09,2.25-1.65,3.66-1.65c1.39,0,2.63,0.56,3.69,1.65c1.06,1.09,1.6,2.33,1.6,3.74c0,1.45-0.54,2.69-1.6,3.72
							C203.66,16.96,202.42,17.47,201.03,17.47z"/>
					</g>
					<g>
						<path class="st0" d="M177.68,25.61l3.38,0l0,19.87c0,2.2,0.52,3.84,1.55,4.93c1.03,1.09,2.86,1.76,5.47,2.01
							c3.51,0,5.83-0.77,7.08-2.24c-0.3-1.33-0.51-2.72-0.51-4.24l0-13.21c0-4.75,2.4-7.12,7.2-7.12l3.38,0l0,19.87
							c0,2.2,0.52,3.84,1.55,4.93c1.03,1.09,2.86,1.76,5.47,2.01c3.77,0,6.22-0.85,7.38-2.55c-0.42-2.19-0.64-5.42-0.64-9.67l0-7.48
							c0-4.75,2.37-7.12,7.12-7.12l3.28,0l0,19.87c0,4.2,1.98,6.52,5.91,6.94l73.92,0c3.46-0.38,5.37-2.11,5.73-5.19l0-35.46
							c0-1.52,0.62-2.79,1.83-3.79c1.22-1.01,2.55-1.5,4.02-1.5l4.73,0l0,39.56c0,4.51-1.34,8.16-4.02,10.99
							c-2.66,2.82-6.53,4.33-11.58,4.51l-74.64,0v-0.1c-4.59-0.23-8.16-1.13-10.56-2.81c-0.24-0.24-0.42-0.41-0.55-0.46
							c-3.04,2.24-7.41,3.36-13.13,3.36h-0.82c-4.3-0.15-7.68-1.34-10.26-3.44l0.04,0.08c-3.04,2.24-7.41,3.36-13.13,3.36h-0.82
							c-5.05-0.18-8.9-1.7-11.58-4.56c-2.68-2.86-4.02-6.53-4.02-11.04l0-13.21C170.48,27.97,172.88,25.61,177.68,25.61z"/>
					</g>
					<g>
						<path class="st0" d="M179.74,8.45c1.06,1.09,1.6,2.33,1.6,3.74c0,1.45-0.52,2.69-1.55,3.72c-1.03,1.05-2.25,1.55-3.64,1.55
							c-1.47,0-2.73-0.51-3.79-1.55c-1.06-1.03-1.6-2.27-1.6-3.72c0-1.4,0.56-2.65,1.65-3.74c1.09-1.09,2.33-1.65,3.74-1.65
							C177.47,6.8,178.68,7.36,179.74,8.45z"/>
					</g>
					<path class="st0" d="M225.11,6.8c1.39,0,2.63,0.56,3.69,1.65c1.06,1.09,1.6,2.33,1.6,3.74c0,1.45-0.54,2.69-1.6,3.72
						c-1.06,1.05-2.3,1.55-3.69,1.55c-1.4,0-2.61-0.51-3.66-1.55c-1.03-1.03-1.55-2.27-1.55-3.72c0-1.4,0.52-2.65,1.55-3.74
						C222.5,7.36,223.71,6.8,225.11,6.8z"/>
				</g>
			</g>
		</g>
		<g>
			<g>
				<g>
					<path class="st0" d="M36.56,50.53c-1.4,0-2.61,0.51-3.66,1.55c-1.03,1.03-1.55,2.27-1.55,3.72c0,1.4,0.52,2.65,1.55,3.74
						c1.05,1.09,2.25,1.65,3.66,1.65c1.39,0,2.63-0.56,3.69-1.65c1.06-1.09,1.6-2.33,1.6-3.74c0-1.45-0.54-2.69-1.6-3.72
						C39.19,51.04,37.94,50.53,36.56,50.53z"/>
					<path class="st0" d="M13.2,42.39l3.38,0l0-19.87c0-2.2,0.52-3.84,1.55-4.93c1.03-1.09,2.86-1.76,5.47-2.01
						c3.51,0,5.83,0.77,7.08,2.24c-0.3,1.33-0.51,2.72-0.51,4.24l0,13.21c0,4.75,2.4,7.12,7.2,7.12l3.38,0l0-19.87
						c0-2.2,0.52-3.84,1.55-4.93s2.86-1.76,5.47-2.01c3.77,0,6.22,0.85,7.38,2.55c-0.42,2.19-0.64,5.42-0.64,9.67l0,7.48
						c0,4.75,2.37,7.12,7.12,7.12l3.28,0l0-19.87c0-4.2,1.98-6.52,5.91-6.94l73.92,0c3.46,0.38,5.37,2.11,5.73,5.19l0,35.46
						c0,1.52,0.62,2.79,1.83,3.79c1.22,1.01,2.55,1.5,4.02,1.5l4.73,0l0-39.56c0-4.51-1.34-8.16-4.02-10.99
						c-2.66-2.82-6.53-4.33-11.58-4.51l-74.64,0v0.1C66.24,6.8,62.67,7.7,60.26,9.38c-0.24,0.24-0.42,0.41-0.55,0.46
						c-3.04-2.24-7.41-3.36-13.13-3.36l-0.82,0c-4.3,0.15-7.68,1.34-10.26,3.44l0.04-0.08C32.5,7.6,28.12,6.47,22.41,6.47l-0.82,0
						c-5.05,0.18-8.9,1.7-11.58,4.56C7.34,13.88,6,17.56,6,22.06l0,13.21C6,40.03,8.4,42.39,13.2,42.39z"/>
					<path class="st0" d="M15.26,59.55c1.06-1.09,1.6-2.33,1.6-3.74c0-1.45-0.52-2.69-1.55-3.72c-1.03-1.05-2.25-1.55-3.64-1.55
						c-1.47,0-2.73,0.51-3.79,1.55c-1.06,1.03-1.6,2.27-1.6,3.72c0,1.4,0.56,2.65,1.65,3.74c1.09,1.09,2.33,1.65,3.74,1.65
						C12.99,61.2,14.2,60.64,15.26,59.55z"/>
					<path class="st0" d="M60.64,61.2c1.39,0,2.63-0.56,3.69-1.65c1.06-1.09,1.6-2.33,1.6-3.74c0-1.45-0.54-2.69-1.6-3.72
						c-1.06-1.05-2.3-1.55-3.69-1.55c-1.4,0-2.61,0.51-3.66,1.55c-1.03,1.03-1.55,2.27-1.55,3.72c0,1.4,0.52,2.65,1.55,3.74
						C58.02,60.64,59.23,61.2,60.64,61.2z"/>
				</g>
			</g>
		</g>
	</g>
	<g>
		<g>
			<g>
				<g>
					<g>
						<path class="st0" d="M869.51,17.47c-1.4,0-2.61-0.51-3.66-1.55c-1.03-1.03-1.55-2.27-1.55-3.72c0-1.4,0.52-2.65,1.55-3.74
							c1.05-1.09,2.25-1.65,3.66-1.65c1.39,0,2.63,0.56,3.69,1.65c1.06,1.09,1.6,2.33,1.6,3.74c0,1.45-0.54,2.69-1.6,3.72
							C872.13,16.96,870.89,17.47,869.51,17.47z"/>
					</g>
					<g>
						<path class="st0" d="M846.15,25.61l3.38,0l0,19.87c0,2.2,0.52,3.84,1.55,4.93c1.03,1.09,2.86,1.76,5.47,2.01
							c3.51,0,5.83-0.77,7.08-2.24c-0.3-1.33-0.51-2.72-0.51-4.24V32.73c0-4.75,2.4-7.12,7.2-7.12l3.38,0l0,19.87
							c0,2.2,0.52,3.84,1.55,4.93c1.03,1.09,2.86,1.76,5.47,2.01c3.77,0,6.22-0.85,7.38-2.55c-0.42-2.19-0.64-5.42-0.64-9.67v-7.48
							c0-4.75,2.37-7.12,7.12-7.12l3.28,0v19.87c0,4.2,1.98,6.52,5.91,6.94l73.92,0c3.46-0.38,5.37-2.11,5.73-5.19l0-35.46
							c0-1.52,0.62-2.79,1.83-3.79c1.22-1.01,2.55-1.5,4.02-1.5l4.73,0l0,39.56c0,4.51-1.34,8.16-4.02,10.99
							c-2.66,2.82-6.53,4.33-11.58,4.51l-74.64,0v-0.1c-4.59-0.23-8.16-1.13-10.56-2.81c-0.24-0.24-0.42-0.41-0.55-0.46
							c-3.04,2.24-7.41,3.36-13.13,3.36h-0.82c-4.3-0.15-7.68-1.34-10.26-3.44l0.04,0.08c-3.04,2.24-7.41,3.36-13.13,3.36h-0.82
							c-5.05-0.18-8.9-1.7-11.58-4.56c-2.68-2.86-4.02-6.53-4.02-11.04V32.73C838.95,27.97,841.35,25.61,846.15,25.61z"/>
					</g>
					<g>
						<path class="st0" d="M848.21,8.45c1.06,1.09,1.6,2.33,1.6,3.74c0,1.45-0.52,2.69-1.55,3.72c-1.03,1.05-2.25,1.55-3.64,1.55
							c-1.47,0-2.73-0.51-3.79-1.55c-1.06-1.03-1.6-2.27-1.6-3.72c0-1.4,0.56-2.65,1.65-3.74c1.09-1.09,2.33-1.65,3.74-1.65
							C845.94,6.8,847.15,7.36,848.21,8.45z"/>
					</g>
					<path class="st0" d="M893.58,6.8c1.39,0,2.63,0.56,3.69,1.65c1.06,1.09,1.6,2.33,1.6,3.74c0,1.45-0.54,2.69-1.6,3.72
						c-1.06,1.05-2.3,1.55-3.69,1.55c-1.4,0-2.61-0.51-3.66-1.55c-1.03-1.03-1.55-2.27-1.55-3.72c0-1.4,0.52-2.65,1.55-3.74
						C890.97,7.36,892.18,6.8,893.58,6.8z"/>
				</g>
			</g>
		</g>
		<g>
			<g>
				<g>
					<path class="st0" d="M705.03,50.53c-1.4,0-2.61,0.51-3.66,1.55c-1.03,1.03-1.55,2.27-1.55,3.72c0,1.4,0.52,2.65,1.55,3.74
						c1.05,1.09,2.25,1.65,3.66,1.65c1.39,0,2.63-0.56,3.69-1.65c1.06-1.09,1.6-2.33,1.6-3.74c0-1.45-0.54-2.69-1.6-3.72
						C707.66,51.04,706.42,50.53,705.03,50.53z"/>
					<path class="st0" d="M681.67,42.39l3.38,0l0-19.87c0-2.2,0.52-3.84,1.55-4.93c1.03-1.09,2.86-1.76,5.47-2.01
						c3.51,0,5.83,0.77,7.08,2.24c-0.3,1.33-0.51,2.72-0.51,4.24v13.21c0,4.75,2.4,7.12,7.2,7.12l3.38,0l0-19.87
						c0-2.2,0.52-3.84,1.55-4.93c1.03-1.09,2.86-1.76,5.47-2.01c3.77,0,6.22,0.85,7.38,2.55c-0.42,2.19-0.64,5.42-0.64,9.67v7.48
						c0,4.75,2.37,7.12,7.12,7.12l3.28,0V22.52c0-4.2,1.98-6.52,5.91-6.94l73.92,0c3.46,0.38,5.37,2.11,5.73,5.19l0,35.46
						c0,1.52,0.62,2.79,1.83,3.79c1.22,1.01,2.55,1.5,4.02,1.5l4.73,0l0-39.56c0-4.51-1.34-8.16-4.02-10.99
						c-2.66-2.82-6.53-4.33-11.58-4.51l-74.64,0v0.1c-4.59,0.23-8.16,1.13-10.56,2.81c-0.24,0.24-0.42,0.41-0.55,0.46
						c-3.04-2.24-7.41-3.36-13.13-3.36l-0.82,0c-4.3,0.15-7.68,1.34-10.26,3.44l0.04-0.08c-3.04-2.24-7.41-3.36-13.13-3.36l-0.82,0
						c-5.05,0.18-8.9,1.7-11.58,4.56c-2.68,2.86-4.02,6.53-4.02,11.04v13.21C674.47,40.03,676.87,42.39,681.67,42.39z"/>
					<path class="st0" d="M683.73,59.55c1.06-1.09,1.6-2.33,1.6-3.74c0-1.45-0.52-2.69-1.55-3.72c-1.03-1.05-2.25-1.55-3.64-1.55
						c-1.47,0-2.73,0.51-3.79,1.55c-1.06,1.03-1.6,2.27-1.6,3.72c0,1.4,0.56,2.65,1.65,3.74c1.09,1.09,2.33,1.65,3.74,1.65
						C681.46,61.2,682.67,60.64,683.73,59.55z"/>
					<path class="st0" d="M729.11,61.2c1.39,0,2.63-0.56,3.69-1.65c1.06-1.09,1.6-2.33,1.6-3.74c0-1.45-0.54-2.69-1.6-3.72
						c-1.06-1.05-2.3-1.55-3.69-1.55c-1.4,0-2.61,0.51-3.66,1.55c-1.03,1.03-1.55,2.27-1.55,3.72c0,1.4,0.52,2.65,1.55,3.74
						C726.5,60.64,727.7,61.2,729.11,61.2z"/>
				</g>
			</g>
		</g>
	</g>
</g>
</svg>
